<?xml version="1.0" encoding="utf-8"?>
<!-- Generator: Adobe Illustrator 15.0.0, SVG Export Plug-In . SVG Version: 6.00 Build 0)  -->
<!DOCTYPE svg PUBLIC "-//W3C//DTD SVG 1.1//EN" "http://www.w3.org/Graphics/SVG/1.1/DTD/svg11.dtd">
<svg version="1.1" id="Слой_1" xmlns="http://www.w3.org/2000/svg" xmlns:xlink="http://www.w3.org/1999/xlink" x="0px" y="0px"
	 width="912.233px" height="912.233px" viewBox="43.123 49.757 912.233 912.233"
	 enable-background="new 43.123 49.757 912.233 912.233" xml:space="preserve">
<g>
	<g>
		<g>
			<defs>
				<rect id="SVGID_1_" x="43.123" y="49.757" width="912.233" height="912.233"/>
			</defs>
			<clipPath id="SVGID_2_">
				<use xlink:href="#SVGID_1_"  overflow="visible"/>
			</clipPath>
			<path clip-path="url(#SVGID_2_)" fill="#5A8CC5" d="M920.91,51.979l-96.448,43.902c-6.176,2.849-11.878,6.747-16.722,11.595
				L650.568,264.74l-541.257-64.903c-9.791-1.141-19.673,2.186-26.61,9.22L52.579,239.18c-15.961,15.965-11.019,42.951,9.6,52.166
				l387.888,173.896L338.696,576.608H144.184c-8.551,0-16.727,3.425-22.805,9.41l-16.25,16.341
				c-16.155,16.156-10.834,43.43,10.074,52.36l164.102,70.318l70.322,164.106c8.931,20.906,36.298,26.229,52.355,10.072
				l16.347-16.345c6.078-6.079,9.405-14.254,9.405-22.806V665.555l111.369-111.371l173.894,387.984
				c9.22,20.62,36.204,25.562,52.171,9.597l30.121-30.123c7.029-7.029,10.356-16.819,9.215-26.604L739.51,353.779l157.269-157.268
				c4.845-4.844,8.741-10.449,11.59-16.722l43.902-96.45C961.485,63.478,940.964,42.857,920.91,51.979L920.91,51.979z"/>
		</g>
	</g>
</g>
</svg>
