<?xml version="1.0" encoding="utf-8"?>
<!-- Generator: Adobe Illustrator 15.0.0, SVG Export Plug-In . SVG Version: 6.00 Build 0)  -->
<!DOCTYPE svg PUBLIC "-//W3C//DTD SVG 1.1//EN" "http://www.w3.org/Graphics/SVG/1.1/DTD/svg11.dtd">
<svg version="1.1" id="Слой_1" xmlns="http://www.w3.org/2000/svg" xmlns:xlink="http://www.w3.org/1999/xlink" x="0px" y="0px"
	 width="912.232px" height="912.234px" viewBox="0 0 912.232 912.234" enable-background="new 0 0 912.232 912.234"
	 xml:space="preserve">
<g>
	<defs>
		<rect id="SVGID_1_" y="0" width="912.232" height="912.233"/>
	</defs>
	<clipPath id="SVGID_2_">
		<use xlink:href="#SVGID_1_"  overflow="visible"/>
	</clipPath>
	<path clip-path="url(#SVGID_2_)" fill="#FFFFFF" d="M877.787,2.223l-96.448,43.902c-6.176,2.849-11.878,6.747-16.722,11.595
		L607.445,214.984L66.188,150.081c-9.791-1.141-19.673,2.186-26.61,9.22L9.456,189.424c-15.961,15.965-11.019,42.951,9.6,52.166
		l387.888,173.896L295.573,526.853H101.061c-8.551,0-16.727,3.424-22.805,9.408l-16.25,16.342
		c-16.155,16.156-10.834,43.43,10.074,52.359l164.102,70.318l70.322,164.105c8.931,20.906,36.298,26.23,52.355,10.072l16.347-16.344
		c6.078-6.08,9.405-14.254,9.405-22.807v-194.51l111.368-111.371l173.895,387.984c9.22,20.621,36.204,25.562,52.171,9.598
		l30.121-30.123c7.029-7.029,10.355-16.818,9.215-26.604l-64.994-541.26l157.27-157.268c4.845-4.844,8.74-10.449,11.59-16.722
		l43.902-96.45C918.362,13.722,897.841-6.899,877.787,2.223L877.787,2.223z"/>
</g>
</svg>
