<?xml version="1.0" encoding="iso-8859-1"?>
<!-- Generator: Adobe Illustrator 19.1.1, SVG Export Plug-In . SVG Version: 6.00 Build 0)  -->
<svg version="1.1" id="Layer_1" xmlns="http://www.w3.org/2000/svg" xmlns:xlink="http://www.w3.org/1999/xlink" x="0px" y="0px"
	 viewBox="-49 141 512 512" style="enable-background:new -49 141 512 512;" xml:space="preserve">
<g transform="translate(1 1)">
	<path style="fill:#5790D1;" d="M453.467,652H-41.467c-5.12,0-8.533-3.413-8.533-8.533s3.413-8.533,8.533-8.533h494.933
		c5.12,0,8.533,3.413,8.533,8.533S458.587,652,453.467,652z"/>
	<path style="fill:#5790D1;" d="M402.267,652H9.733c-5.12,0-8.533-3.413-8.533-8.533v-460.8c0-5.12,3.413-8.533,8.533-8.533h392.533
		c5.12,0,8.533,3.413,8.533,8.533v460.8C410.8,648.587,407.387,652,402.267,652z M18.267,634.933h375.467V191.2H18.267V634.933z"/>
	<path style="fill:#5790D1;" d="M427.867,191.2H-15.867c-5.12,0-8.533-3.413-8.533-8.533v-34.133c0-5.12,3.413-8.533,8.533-8.533
		h443.733c5.12,0,8.533,3.413,8.533,8.533v34.133C436.4,187.787,432.987,191.2,427.867,191.2z M-7.333,174.133h426.667v-17.067
		H-7.333V174.133z"/>
	<path style="fill:#5790D1;" d="M257.2,652H154.8c-5.12,0-8.533-3.413-8.533-8.533v-153.6c0-5.12,3.413-8.533,8.533-8.533h102.4
		c5.12,0,8.533,3.413,8.533,8.533v153.6C265.733,648.587,262.32,652,257.2,652z M163.333,634.933h85.333V498.4h-85.333V634.933z"/>
	<path style="fill:#5790D1;" d="M180.4,310.667h-68.267c-5.12,0-8.533-3.413-8.533-8.533v-68.267c0-5.12,3.413-8.533,8.533-8.533
		H180.4c5.12,0,8.533,3.413,8.533,8.533v68.267C188.933,307.253,185.52,310.667,180.4,310.667z M120.667,293.6h51.2v-51.2h-51.2
		V293.6z"/>
	<path style="fill:#5790D1;" d="M120.667,566.667h-76.8c-5.12,0-8.533-3.413-8.533-8.533v-68.267c0-5.12,3.413-8.533,8.533-8.533
		h76.8c5.12,0,8.533,3.413,8.533,8.533v68.267C129.2,563.253,125.787,566.667,120.667,566.667z M52.4,549.6h59.733v-51.2H52.4V549.6
		z"/>
	<path style="fill:#5790D1;" d="M368.133,566.667h-76.8c-5.12,0-8.533-3.413-8.533-8.533v-68.267c0-5.12,3.413-8.533,8.533-8.533
		h76.8c5.12,0,8.533,3.413,8.533,8.533v68.267C376.667,563.253,373.253,566.667,368.133,566.667z M299.867,549.6H359.6v-51.2
		h-59.733V549.6z"/>
	<path style="fill:#5790D1;" d="M112.133,310.667H43.867c-5.12,0-8.533-3.413-8.533-8.533v-68.267c0-5.12,3.413-8.533,8.533-8.533
		h68.267c5.12,0,8.533,3.413,8.533,8.533v68.267C120.667,307.253,117.253,310.667,112.133,310.667z M52.4,293.6h51.2v-51.2H52.4
		V293.6z"/>
	<path style="fill:#5790D1;" d="M368.133,310.667h-68.267c-5.12,0-8.533-3.413-8.533-8.533v-68.267c0-5.12,3.413-8.533,8.533-8.533
		h68.267c5.12,0,8.533,3.413,8.533,8.533v68.267C376.667,307.253,373.253,310.667,368.133,310.667z M308.4,293.6h51.2v-51.2h-51.2
		V293.6z"/>
	<path style="fill:#5790D1;" d="M299.867,310.667H231.6c-5.12,0-8.533-3.413-8.533-8.533v-68.267c0-5.12,3.413-8.533,8.533-8.533
		h68.267c5.12,0,8.533,3.413,8.533,8.533v68.267C308.4,307.253,304.987,310.667,299.867,310.667z M240.133,293.6h51.2v-51.2h-51.2
		V293.6z"/>
	<path style="fill:#5790D1;" d="M180.4,430.133h-68.267c-5.12,0-8.533-3.413-8.533-8.533v-68.267c0-5.12,3.413-8.533,8.533-8.533
		H180.4c5.12,0,8.533,3.413,8.533,8.533V421.6C188.933,426.72,185.52,430.133,180.4,430.133z M120.667,413.067h51.2v-51.2h-51.2
		V413.067z"/>
	<path style="fill:#5790D1;" d="M112.133,430.133H43.867c-5.12,0-8.533-3.413-8.533-8.533v-68.267c0-5.12,3.413-8.533,8.533-8.533
		h68.267c5.12,0,8.533,3.413,8.533,8.533V421.6C120.667,426.72,117.253,430.133,112.133,430.133z M52.4,413.067h51.2v-51.2H52.4
		V413.067z"/>
	<path style="fill:#5790D1;" d="M368.133,430.133h-68.267c-5.12,0-8.533-3.413-8.533-8.533v-68.267c0-5.12,3.413-8.533,8.533-8.533
		h68.267c5.12,0,8.533,3.413,8.533,8.533V421.6C376.667,426.72,373.253,430.133,368.133,430.133z M308.4,413.067h51.2v-51.2h-51.2
		V413.067z"/>
	<path style="fill:#5790D1;" d="M299.867,430.133H231.6c-5.12,0-8.533-3.413-8.533-8.533v-68.267c0-5.12,3.413-8.533,8.533-8.533
		h68.267c5.12,0,8.533,3.413,8.533,8.533V421.6C308.4,426.72,304.987,430.133,299.867,430.133z M240.133,413.067h51.2v-51.2h-51.2
		V413.067z"/>
	<path style="fill:#5790D1;" d="M206,652c-5.12,0-8.533-3.413-8.533-8.533v-153.6c0-5.12,3.413-8.533,8.533-8.533
		c5.12,0,8.533,3.413,8.533,8.533v153.6C214.533,648.587,211.12,652,206,652z"/>
</g>
</svg>
