<?xml version="1.0" encoding="utf-8"?>
<!-- Generator: Adobe Illustrator 15.0.0, SVG Export Plug-In . SVG Version: 6.00 Build 0)  -->
<!DOCTYPE svg PUBLIC "-//W3C//DTD SVG 1.1//EN" "http://www.w3.org/Graphics/SVG/1.1/DTD/svg11.dtd">
<svg version="1.1" id="Слой_1" xmlns="http://www.w3.org/2000/svg" xmlns:xlink="http://www.w3.org/1999/xlink" x="0px" y="0px"
	 width="486.526px" height="486.527px" viewBox="255.74 302.435 486.526 486.527"
	 enable-background="new 255.74 302.435 486.526 486.527" xml:space="preserve">
<g>
	<path fill="#6B8CC4" d="M483.589,472.661c-0.506,7.55-0.806,15.619-0.806,24.384c0,40.616,12.123,64.869,32.437,64.869
		c25.607,0,32.433-30.576,32.433-48.653c0-4.473-3.634-8.105-8.105-8.105c-4.479,0-8.111,3.633-8.111,8.105
		c0,0.325-0.695,32.438-16.216,32.438c-9.4,0-16.216-20.462-16.216-48.653c0-94.542,33.179-105.306,34.223-105.608
		c4.273-0.975,7.024-5.184,6.157-9.502c-0.868-4.39-5.118-7.243-9.534-6.357c-1.625,0.321-7.504,1.865-14.574,7.92
		c0.009-1.396,0.121-2.789,0.496-4.176c1.118-4.185,3.805-7.678,7.559-9.846c3.745-2.162,8.124-2.736,12.301-1.619
		c4.185,1.127,7.688,3.809,9.841,7.558c4.477,7.744,1.818,17.683-5.925,22.151c-3.885,2.245-5.206,7.21-2.97,11.084
		c1.503,2.593,4.227,4.046,7.029,4.046c1.378,0,2.774-0.348,4.046-1.085c15.487-8.95,20.809-28.827,11.873-44.306
		c-4.329-7.498-11.325-12.867-19.696-15.111c-8.385-2.251-17.116-1.091-24.609,3.243c-7.503,4.33-12.866,11.326-15.116,19.691
		c-2.098,7.837-1.1,15.966,2.709,23.371c-6.955,11.321-13.46,28.178-17.074,53.251c-12.144-14.541-19.173-33.059-19.173-52.013
		c0-44.71,36.377-81.086,81.087-81.086c44.714,0,81.09,36.376,81.09,81.086c0,44.714-36.376,81.09-81.09,81.09
		c-8.807,0-17.465-1.404-25.728-4.16c-4.242-1.411-8.845,0.876-10.26,5.117c-1.424,4.245,0.867,8.839,5.118,10.259
		c9.925,3.312,20.313,5.002,30.869,5.002c53.655,0,97.307-43.652,97.307-97.308s-43.646-97.302-97.302-97.302
		s-97.308,43.647-97.308,97.307C450.35,427.391,462.766,454.265,483.589,472.661L483.589,472.661z"/>
	<path fill="#6B8CC4" d="M739.892,539.964l-84.22-84.219c-3.164-3.16-8.295-3.16-11.464,0c-3.165,3.174-3.165,8.305,0,11.471
		l81.837,81.837v29.077h-29.077l-3.354-3.354v-20.967c0-4.478-3.634-8.11-8.111-8.11h-8.105v-8.11c0-4.473-3.633-8.106-8.111-8.106
		h-20.962l-3.364-3.364v-20.962c0-4.479-3.633-8.11-8.106-8.11h-20.972l-0.784-0.784c-3.164-3.164-8.296-3.164-11.465,0
		c-3.164,3.169-3.164,8.301,0,11.465l3.16,3.164c1.517,1.521,3.586,2.376,5.734,2.376h16.216v16.207c0,2.147,0.85,4.209,2.367,5.726
		l8.11,8.124c1.521,1.526,3.581,2.376,5.739,2.376h16.221v8.11c0,4.474,3.634,8.105,8.105,8.105h8.111v16.216
		c0,2.149,0.849,4.218,2.375,5.736l8.105,8.11c1.519,1.521,3.588,2.375,5.736,2.375h40.542c4.478,0,8.111-3.633,8.111-8.11v-40.543
		C742.267,543.55,741.413,541.48,739.892,539.964L739.892,539.964z"/>
	<path fill="#6B8CC4" d="M304.394,440.286c0,4.472,3.634,8.105,8.105,8.105h8.11v48.654h-8.11c-4.472,0-8.105,3.632-8.105,8.11
		c0,4.473,3.634,8.105,8.105,8.105h8.11v48.653h-8.11c-4.472,0-8.105,3.634-8.105,8.105c0,4.479,3.634,8.11,8.105,8.11h8.11v48.654
		h-8.11c-4.472,0-8.105,3.633-8.105,8.106c0,4.477,3.634,8.11,8.105,8.11h8.11v48.653h-8.11c-4.472,0-8.105,3.633-8.105,8.105
		c0,4.478,3.634,8.11,8.105,8.11h8.11v40.544c0,4.477,3.634,8.11,8.107,8.11c4.477,0,8.109-3.634,8.109-8.11V707.87h32.433v40.544
		c0,4.477,3.633,8.11,8.11,8.11s8.111-3.634,8.111-8.11V707.87h32.432v40.544c0,4.477,3.634,8.11,8.11,8.11
		c4.474,0,8.106-3.634,8.106-8.11V707.87h32.437v40.544c0,4.477,3.629,8.11,8.105,8.11c4.479,0,8.112-3.634,8.112-8.11V707.87h8.105
		c4.477,0,8.11-3.633,8.11-8.11c0-4.473-3.634-8.105-8.11-8.105h-8.105v-48.653h8.105c4.477,0,8.11-3.634,8.11-8.11
		c0-4.474-3.634-8.106-8.11-8.106h-8.105V578.13c4.472,0,8.105-3.632,8.105-8.11c0-4.472-3.634-8.105-8.105-8.105
		c0-4.477-3.634-8.11-8.112-8.11c-4.477,0-8.105,3.634-8.105,8.11h-32.437v-48.653h24.326c4.479,0,8.11-3.633,8.11-8.105
		c0-4.479-3.632-8.11-8.11-8.11h-24.326v-48.654h4.061c4.472,0,8.105-3.633,8.105-8.105c0-4.478-3.634-8.11-8.105-8.11h-125.69
		C308.027,432.175,304.394,435.808,304.394,440.286L304.394,440.286z M434.134,578.13h32.432v48.653h-32.432V578.13z
		 M434.134,643.001h32.432v48.653h-32.432V643.001z M385.48,448.391h32.432v48.654H385.48V448.391z M385.48,513.261h32.432v48.653
		H385.48V513.261z M385.48,578.13h32.432v48.653H385.48V578.13z M385.48,643.001h32.432v48.653H385.48V643.001z M336.826,448.391
		h32.438v48.654h-32.438V448.391z M336.826,513.261h32.438v48.653h-32.438V513.261z M336.826,578.13h32.438v48.653h-32.438V578.13z
		 M336.826,643.001h32.438v48.653h-32.438V643.001z"/>
	<path fill="#6B8CC4" d="M426.022,415.958c4.478,0,8.111-3.632,8.111-8.11c0-4.473-3.634-8.105-8.111-8.105h-48.653
		c-4.473,0-8.105,3.632-8.105,8.105c0,4.478,3.633,8.11,8.105,8.11H426.022z"/>
	<path fill="#6B8CC4" d="M734.155,772.74H612.526v-33.254c18.477-3.768,32.433-20.142,32.433-39.722
		c0-1.054-0.459-105.413-40.543-105.413c-40.083,0-40.543,104.359-40.543,105.413c0,19.58,13.952,35.954,32.433,39.722v33.254
		h-64.87V586.241c0-4.478-3.633-8.111-8.11-8.111c-4.473,0-8.106,3.634-8.106,8.111V772.74H288.173V415.958h56.764
		c4.473,0,8.106-3.632,8.106-8.11v-24.326h72.979c4.478,0,8.111-3.633,8.111-8.107c0-4.477-3.634-8.11-8.111-8.11h-81.086
		c-4.478,0-8.11,3.634-8.11,8.11v24.328h-56.76c-4.477,0-8.11,3.632-8.11,8.105V772.74h-8.105c-4.477,0-8.11,3.633-8.11,8.109
		c0,4.479,3.633,8.112,8.11,8.112h470.305c4.474,0,8.106-3.634,8.106-8.112C742.262,776.373,738.633,772.74,734.155,772.74
		L734.155,772.74z M580.089,699.765c0-40.399,10.849-89.197,24.327-89.197c13.475,0,24.326,48.798,24.326,89.197
		c0,13.409-10.917,24.326-24.326,24.326C591.002,724.091,580.089,713.174,580.089,699.765L580.089,699.765z"/>
</g>
</svg>
