<?xml version="1.0" encoding="utf-8"?>
<!-- Generator: Adobe Illustrator 15.0.0, SVG Export Plug-In . SVG Version: 6.00 Build 0)  -->
<!DOCTYPE svg PUBLIC "-//W3C//DTD SVG 1.1//EN" "http://www.w3.org/Graphics/SVG/1.1/DTD/svg11.dtd">
<svg version="1.1" id="Layer_1" xmlns="http://www.w3.org/2000/svg" xmlns:xlink="http://www.w3.org/1999/xlink" x="0px" y="0px"
	 width="892.855px" height="1000px" viewBox="53.572 0 892.855 1000" enable-background="new 53.572 0 892.855 1000"
	 xml:space="preserve">
<path fill="#5790D1" d="M89.285,623.141c0-19.697,16.018-35.715,35.715-35.715s35.715,16.018,35.715,35.715
	c0,9.857,8,17.857,17.857,17.857h53.572v339.285c0,9.857,8,17.857,17.857,17.857h89.285h17.857
	c49.232,0,89.285-40.053,89.285-89.285V640.998H500h45.053L483.41,795.07c-2.197,5.5-1.518,11.732,1.803,16.643
	c3.322,4.91,8.857,7.857,14.785,7.857h53.572v160.715c0,9.857,8,17.857,17.857,17.857h89.285h17.857
	c49.232,0,89.285-40.053,89.285-89.285v-89.285h53.572c5.928,0,11.465-2.947,14.785-7.84s4-11.143,1.803-16.643L776.373,641h45.053
	c9.857,0,17.857-8,17.857-17.857c0-19.697,16.018-35.715,35.715-35.715s35.715,16.018,35.715,35.715v375h35.715V623.141
	c0-39.393-32.035-71.428-71.428-71.428c-13.072,0-25.16,3.785-35.715,9.928v-188.5c0-49.232-40.053-89.285-89.285-89.285h-9.643
	c17.035-18.982,27.5-43.965,27.5-71.428c0-11.572-1.893-22.678-5.303-33.125l49.518,30.465l18.715-30.41l-42.197-25.965
	c6.178-17.035,7.16-35.482,2.375-53.34c-6.178-23.035-20.947-42.285-41.607-54.215C712.893,24.803,667.75,32.641,640,61.963
	l-41.357-25.447l-18.715,30.41l64.553,39.732c-51.375,7.857-90.91,52.215-90.91,105.768c0,27.465,10.465,52.447,27.5,71.428h-9.643
	c-29.303,0-55.143,14.393-71.428,36.268c-16.285-21.875-42.125-36.268-71.428-36.268h-9.643c17.035-18.982,27.5-43.965,27.5-71.428
	c0-27.465-10.465-52.447-27.5-71.428h27.5v-35.715h-35.715V15.999c0-9.857-8-17.857-17.857-17.857H285.715
	c-9.857,0-17.857,8-17.857,17.857v89.285h-35.715v35.715h27.5c-17.035,18.982-27.5,43.965-27.5,71.428
	c0,27.465,10.465,52.447,27.5,71.428H250c-49.232,0-89.285,40.053-89.285,89.285v188.5c-10.553-6.143-22.643-9.928-35.715-9.928
	c-39.393,0-71.428,32.035-71.428,71.428v375h35.715V623.141H89.285z M731.5,76.766c12.393,7.143,21.25,18.697,24.965,32.518
	c2.197,8.197,2.178,16.572,0.518,24.66l-85.518-52.625C688.178,68.051,711.928,65.481,731.5,76.766z M732.143,551.713H589.285
	v-35.715h142.857V551.713z M589.285,819.568h53.572v142.857h-53.572V819.568z M732.143,908.855
	c0,29.535-24.035,53.572-53.572,53.572V819.57h53.572V908.855z M526.375,783.855l61.643-154.072c0.84-2.125,1.268-4.375,1.268-6.643
	v-17.857v-17.857h142.857v17.857v17.857c0,2.268,0.428,4.518,1.268,6.643l61.643,154.072H526.375z M589.285,212.426
	c0-39.393,32.035-71.428,71.428-71.428s71.428,32.035,71.428,71.428s-32.035,71.428-71.428,71.428S589.285,251.819,589.285,212.426z
	 M571.428,319.569H750c29.535,0,53.572,24.035,53.572,53.572v232.142h-35.715v-35.715v-71.427v-125h-35.715v107.143H589.285V373.141
	H553.57v125v71.427v35.715h-35.715V373.141C517.857,343.606,541.893,319.569,571.428,319.569z M303.572,33.856H375v71.428h-71.428
	V33.856z M267.857,212.426c0-39.393,32.035-71.428,71.428-71.428s71.428,32.035,71.428,71.428s-32.035,71.428-71.428,71.428
	S267.857,251.819,267.857,212.426z M196.428,373.141c0-29.535,24.035-53.572,53.572-53.572h178.572
	c29.535,0,53.572,24.035,53.572,53.572v232.142H446.43V373.141h-35.715v535.714c0,29.535-24.035,53.572-53.572,53.572v-321.43
	h-35.715v321.428h-53.57V373.141h-35.715v232.142h-35.715V373.141z"/>
<rect x="272.428" y="498.143" fill="#5790D1" width="35.715" height="35.715"/>
<rect x="272.428" y="569.572" fill="#5790D1" width="35.715" height="35.715"/>
<rect x="272.428" y="641" fill="#5790D1" width="35.715" height="35.715"/>
<rect x="522.428" y="855.285" fill="#5790D1" width="35.715" height="35.715"/>
<rect x="593.857" y="855.285" fill="#5790D1" width="35.715" height="35.715"/>
<rect x="665.285" y="855.285" fill="#5790D1" width="35.715" height="35.715"/>
</svg>
