<?xml version="1.0" encoding="utf-8"?>
<!-- Generator: Adobe Illustrator 15.0.0, SVG Export Plug-In . SVG Version: 6.00 Build 0)  -->
<!DOCTYPE svg PUBLIC "-//W3C//DTD SVG 1.1//EN" "http://www.w3.org/Graphics/SVG/1.1/DTD/svg11.dtd">
<svg version="1.1" id="Слой_1" xmlns="http://www.w3.org/2000/svg" xmlns:xlink="http://www.w3.org/1999/xlink" x="0px" y="0px"
	 width="486.526px" height="421.656px" viewBox="255.74 289.663 486.526 421.656"
	 enable-background="new 255.74 289.663 486.526 421.656" xml:space="preserve">
<g>
	<path fill="#5A8CC6" d="M507.109,532.925c-28.646,0-48.649,20.003-48.649,48.648v8.112c0,39.405,22.281,64.869,56.76,64.869
		c34.478,0,56.759-25.464,56.759-64.869v-8.112c0-28.646-20.011-48.648-48.653-48.648H507.109L507.109,532.925z M555.763,581.573
		v8.112c0,14.629-3.958,48.652-40.543,48.652c-36.595,0-40.544-34.023-40.544-48.652v-8.112c0-19.7,12.728-32.432,32.434-32.432
		h16.221C543.025,549.142,555.763,561.873,555.763,581.573L555.763,581.573z"/>
	<path fill="#5A8CC6" d="M499.244,581.573h-0.088c-4.468,0-8.059,3.634-8.059,8.112c0,4.477,3.664,8.105,8.146,8.105
		c4.478,0,8.11-3.629,8.11-8.105C507.354,585.207,503.722,581.573,499.244,581.573L499.244,581.573z"/>
	<path fill="#5A8CC6" d="M538.92,476.139c4.52,0.292,8.37-3.003,8.709-7.461l8.102-105.283c1.8-19.297,27.741-41.3,48.686-41.3
		h16.216c21.344,0,47.276,21.91,48.678,41.169l8.11,105.414c0.324,4.25,3.875,7.483,8.073,7.483c0.204,0,0.422-0.009,0.636-0.022
		c4.459-0.344,7.799-4.242,7.461-8.709l-8.11-105.381c-2.167-29.719-38.07-56.17-64.848-56.17h-16.216
		c-29.515,0-62.234,28.266-64.847,56.138l-8.105,105.413C531.12,471.896,534.461,475.8,538.92,476.139L538.92,476.139z"/>
	<path fill="#5A8CC6" d="M612.104,360.077c-1.104-3.313-4.204-5.544-7.688-5.544c-3.494,0-6.594,2.231-7.698,5.544
		c-6.087,18.285-24.034,18.773-24.739,18.782c-4.481,0-8.105,3.633-8.105,8.106v32.437c0,27.083,18.504,64.87,48.653,64.87
		c30.136,0,48.649-37.787,48.649-64.87v-32.437c0-4.473-3.634-8.106-8.105-8.106C652.717,378.858,618.201,378.349,612.104,360.077
		L612.104,360.077z M644.959,419.401c0,22.04-14.467,48.654-32.433,48.654c-17.97,0-32.438-26.614-32.438-48.654v-25.314
		c7.939-1.8,17.743-6.325,24.944-15.539c11.354,11.362,29.478,14.912,39.926,16.026V419.401z"/>
	<path fill="#5A8CC6" d="M417.917,370.748h8.105c4.478,0,8.111-3.632,8.111-8.105c0-4.478-3.634-8.11-8.111-8.11h-8.105
		c-4.486,0-8.11,3.632-8.11,8.11C409.807,367.116,413.431,370.748,417.917,370.748L417.917,370.748z"/>
	<g>
		<path fill="#5A8CC6" d="M531.681,597.796c4.474,0,8.107-3.634,8.107-8.11c0-4.474-3.634-8.107-8.107-8.107h-0.092
			c-4.468,0-8.06,3.634-8.06,8.107C523.529,594.162,527.194,597.796,531.681,597.796L531.681,597.796z"/>
		<path fill="#5A8CC6" d="M337.137,384.965c1.55,15.585,8.329,29.306,8.649,29.955c7.349,14.699,18.466,36.915,55.91,36.915
			c37.448,0,48.556-22.216,55.9-36.915c0.325-0.649,7.104-14.37,8.662-29.955c5.012-2.756,8.417-8.101,8.417-14.217v-16.216
			c0-5.995-3.267-11.233-8.105-14.037v-2.179c0-26.833-21.83-48.654-48.653-48.654H385.48c-26.833,0-48.649,21.821-48.649,48.654
			v2.179c-4.853,2.803-8.111,8.042-8.111,14.037v16.216C328.72,376.864,332.127,382.204,337.137,384.965L337.137,384.965z
			 M344.937,354.532c4.478,0,8.11-3.634,8.11-8.11v-8.105c0-17.892,14.546-32.438,32.434-32.438h32.432
			c17.892,0,32.438,14.551,32.438,32.438v8.105c0,4.477,3.624,8.11,8.105,8.11v16.216c-4.481,0-8.105,3.633-8.105,8.11
			c0,14.027-7.183,28.67-7.258,28.809c-8.438,16.885-15.887,27.952-41.396,27.952c-25.519,0-32.962-11.067-41.397-27.942
			c-0.078-0.148-7.256-14.792-7.256-28.818c0-4.477-3.634-8.11-8.106-8.11V354.532z"/>
	</g>
	<path fill="#5A8CC6" d="M539.547,662.665c-1.606,0-3.169,0.478-4.501,1.358l-19.826,13.22l-19.836-13.22
		c-1.326-0.881-2.891-1.358-4.491-1.358c-46.909,0-56.759,22.044-56.759,40.543c0,4.473,3.623,8.105,8.105,8.105
		c4.478,0,8.11-3.633,8.11-8.105c0-6.52,0-23.612,38.121-24.312l22.248,14.843c2.724,1.813,6.268,1.813,8.991,0l22.259-14.843
		c38.12,0.7,38.12,17.793,38.12,24.312c0,4.473,3.624,8.105,8.106,8.105c4.478,0,8.11-3.633,8.11-8.105
		C596.306,684.713,586.455,662.665,539.547,662.665L539.547,662.665z"/>
	<path fill="#5A8CC6" d="M686.041,565.357h-0.033c-4.468,0-8.092,3.61-8.11,8.078l-0.501,129.739
		c-0.019,4.474,3.592,8.125,8.073,8.144h0.032c4.468,0,8.092-3.609,8.111-8.078l0.5-129.739
		C694.132,569.023,690.522,565.377,686.041,565.357L686.041,565.357z"/>
	<path fill="#5A8CC6" d="M377.369,370.748h8.111c4.477,0,8.11-3.632,8.11-8.105c0-4.478-3.634-8.11-8.11-8.11h-8.111
		c-4.482,0-8.105,3.632-8.105,8.11C369.264,367.116,372.887,370.748,377.369,370.748L377.369,370.748z"/>
	<path fill="#5A8CC6" d="M442.077,518.306l6.788-33.862c40.942,0.923,70.409,11.121,79.443,27.714
		c2.13,3.936,7.038,5.382,10.992,3.243c3.934-2.139,5.387-7.062,3.243-10.996c-12.723-23.386-48.157-36.247-99.785-36.247
		c-4.027-0.07-7.67,2.557-8.473,6.514l-8.11,40.437c-0.872,4.396,1.963,8.668,6.357,9.546c0.547,0.115,1.071,0.161,1.609,0.161
		C437.929,524.814,441.303,522.156,442.077,518.306L442.077,518.306z"/>
	<path fill="#5A8CC6" d="M722.379,508.608c-15.891-15.864-39.771-24.24-69.068-24.24c-4.686,0.09-8.328,3.546-8.352,8.083
		c-0.009,1.657-0.575,40.474-32.433,40.474c-31.871,0-32.428-38.807-32.438-40.464c-0.009-4.469-3.637-8.083-8.105-8.083
		c-4.486,0-8.11,3.624-8.11,8.106c0,18.132,8.76,51.159,40.543,55.998v41.203c0,4.477,3.624,8.109,8.11,8.109
		c4.474,0,8.105-3.633,8.105-8.109v-41.208c27.371-4.18,37.676-29.218,39.996-47.688c21.51,1.205,38.789,7.809,50.287,19.297
		c9.767,9.739,15.13,22.93,15.13,37.16v129.74c0,4.478,3.629,8.11,8.11,8.11c4.478,0,8.111-3.633,8.111-8.11v-129.74
		C742.267,538.679,735.204,521.409,722.379,508.608L722.379,508.608z"/>
	<path fill="#5A8CC6" d="M401.696,468.056c-8.94,0-16.216,7.271-16.216,16.216c0,5.977,3.284,11.149,8.11,13.961v59.02
		c0,4.473,3.622,8.105,8.105,8.105c4.477,0,8.11-3.633,8.11-8.105v-59.02c4.816-2.812,8.105-7.984,8.105-13.961
		C417.917,475.326,410.632,468.056,401.696,468.056L401.696,468.056z"/>
	<path fill="#5A8CC6" d="M312.499,565.357c-4.481,0-8.105,3.634-8.105,8.11v129.74c0,4.473,3.624,8.105,8.105,8.105
		c4.479,0,8.11-3.633,8.11-8.105v-129.74C320.609,568.991,316.978,565.357,312.499,565.357L312.499,565.357z"/>
	<path fill="#5A8CC6" d="M369.083,474.612c-0.808-3.94-4.632-6.445-8.482-6.455c-42.594,0-75.175,9.122-91.79,25.696
		c-8.667,8.662-13.07,19.083-13.07,30.961v162.177c0,4.474,3.624,8.106,8.11,8.106c4.473,0,8.105-3.633,8.105-8.106V524.814
		c0-7.526,2.724-13.896,8.314-19.487c12.63-12.606,39.504-20.109,74.298-20.889l39.188,187.989c0.91,4.374,5.226,7.19,9.595,6.282
		c4.386-0.915,7.202-5.216,6.279-9.591L369.083,474.612z"/>
</g>
</svg>
