<?xml version="1.0" encoding="utf-8"?>
<!-- Generator: Adobe Illustrator 15.0.0, SVG Export Plug-In . SVG Version: 6.00 Build 0)  -->
<!DOCTYPE svg PUBLIC "-//W3C//DTD SVG 1.1//EN" "http://www.w3.org/Graphics/SVG/1.1/DTD/svg11.dtd">
<svg version="1.1" xmlns="http://www.w3.org/2000/svg" xmlns:xlink="http://www.w3.org/1999/xlink" x="0px" y="0px"
	 width="248.852px" height="40px" viewBox="0 0 248.852 40" enable-background="new 0 0 248.852 40" xml:space="preserve">
<g id="Layer_2" display="none">
	<rect x="14.426" y="2.319" display="inline" fill="#070404" width="220" height="35.363"/>
</g>
<g id="Layer_1">
	<g>
		<path fill="#FFFFFF" d="M49.789,20c0-9.747-7.934-17.68-17.681-17.68c-9.748,0-17.682,7.933-17.682,17.68
			c0,5.149,2.213,9.792,5.739,13.026l-0.016,0.017l0.572,0.483c0.038,0.03,0.079,0.056,0.117,0.087
			c0.303,0.251,0.621,0.49,0.941,0.723c0.103,0.076,0.207,0.15,0.313,0.225c0.346,0.237,0.697,0.463,1.058,0.674
			c0.079,0.047,0.157,0.09,0.235,0.137c0.394,0.224,0.798,0.437,1.209,0.629c0.031,0.017,0.061,0.028,0.091,0.044
			c1.344,0.621,2.779,1.08,4.276,1.353c0.041,0.006,0.079,0.013,0.119,0.02c0.464,0.082,0.936,0.144,1.413,0.187
			c0.057,0.008,0.118,0.012,0.173,0.016c0.474,0.04,0.955,0.064,1.441,0.064c0.48,0,0.957-0.024,1.428-0.064
			c0.061-0.004,0.12-0.008,0.179-0.011c0.475-0.044,0.939-0.107,1.4-0.185c0.041-0.007,0.082-0.017,0.123-0.022
			c1.475-0.266,2.887-0.714,4.213-1.322c0.049-0.021,0.1-0.043,0.147-0.066c0.398-0.188,0.785-0.388,1.165-0.603
			c0.094-0.055,0.188-0.107,0.282-0.162c0.346-0.205,0.688-0.415,1.018-0.645c0.119-0.078,0.235-0.165,0.351-0.252
			c0.283-0.201,0.562-0.411,0.829-0.629c0.06-0.049,0.126-0.093,0.185-0.14l0.586-0.492l-0.018-0.015
			C47.554,29.84,49.789,25.178,49.789,20L49.789,20z M15.713,20c0-9.041,7.353-16.393,16.394-16.393
			c9.041,0,16.394,7.353,16.394,16.393c0,4.873-2.138,9.253-5.521,12.257c-0.189-0.128-0.376-0.249-0.575-0.346l-5.443-2.722
			c-0.486-0.244-0.791-0.734-0.791-1.28v-1.902c0.125-0.155,0.26-0.331,0.395-0.526c0.707-0.994,1.272-2.102,1.683-3.293
			c0.816-0.386,1.341-1.197,1.341-2.116v-2.279c0-0.555-0.204-1.094-0.568-1.522v-3.001c0.031-0.333,0.15-2.216-1.212-3.77
			c-1.184-1.351-3.103-2.038-5.701-2.038c-2.599,0-4.518,0.688-5.701,2.038c-1.363,1.553-1.244,3.437-1.212,3.77v3.001
			c-0.364,0.423-0.568,0.967-0.568,1.522v2.279c0,0.71,0.317,1.37,0.861,1.815c0.521,2.043,1.591,3.585,1.989,4.106v1.861
			c0,0.524-0.289,1.009-0.747,1.26l-5.086,2.772c-0.16,0.087-0.323,0.189-0.483,0.307C17.82,29.189,15.713,24.839,15.713,20
			L15.713,20z M41.727,33.264c-0.226,0.164-0.457,0.324-0.688,0.475c-0.107,0.07-0.213,0.14-0.32,0.207
			c-0.305,0.189-0.612,0.365-0.929,0.535c-0.068,0.034-0.138,0.068-0.207,0.105c-0.726,0.371-1.476,0.691-2.245,0.948
			c-0.025,0.009-0.054,0.02-0.083,0.027c-0.401,0.135-0.81,0.253-1.224,0.356h-0.003c-0.418,0.103-0.838,0.187-1.262,0.26
			c-0.012,0-0.025,0.002-0.034,0.007c-0.398,0.062-0.804,0.109-1.206,0.146c-0.072,0.006-0.144,0.009-0.217,0.017
			c-0.398,0.028-0.8,0.047-1.202,0.047c-0.408,0-0.813-0.019-1.218-0.05c-0.069-0.005-0.141-0.01-0.21-0.017
			c-0.409-0.034-0.813-0.084-1.215-0.148l-0.053-0.008c-0.852-0.145-1.687-0.353-2.503-0.625c-0.024-0.01-0.05-0.02-0.075-0.028
			c-0.405-0.136-0.803-0.29-1.196-0.459c-0.003,0-0.007,0-0.008-0.003c-0.371-0.159-0.736-0.337-1.097-0.523
			c-0.047-0.026-0.094-0.048-0.142-0.074c-0.329-0.175-0.648-0.363-0.967-0.561c-0.094-0.061-0.188-0.119-0.278-0.184
			c-0.293-0.187-0.581-0.388-0.861-0.597c-0.028-0.023-0.057-0.044-0.084-0.066l0.06-0.035l5.086-2.772
			c0.873-0.477,1.416-1.394,1.416-2.39v-2.316l-0.147-0.179c-0.016-0.017-1.403-1.704-1.931-3.997l-0.056-0.255l-0.22-0.14
			c-0.311-0.201-0.496-0.535-0.496-0.896v-2.279c0-0.297,0.128-0.578,0.358-0.788l0.213-0.192v-3.579l-0.006-0.084
			c0-0.016-0.192-1.564,0.897-2.804c0.93-1.061,2.524-1.598,4.735-1.598c2.204,0,3.792,0.534,4.721,1.586
			c1.09,1.227,0.911,2.803,0.911,2.816l-0.006,3.667l0.213,0.19c0.23,0.208,0.358,0.488,0.358,0.785v2.279
			c0,0.459-0.314,0.876-0.759,1.015l-0.32,0.097l-0.104,0.319c-0.379,1.178-0.92,2.267-1.604,3.235
			c-0.17,0.238-0.333,0.448-0.474,0.611l-0.157,0.18v2.38c0,1.036,0.575,1.968,1.501,2.433l5.444,2.722
			c0.035,0.015,0.069,0.035,0.104,0.055C41.865,33.168,41.795,33.214,41.727,33.264L41.727,33.264z"/>
	</g>
	<g>
		<path fill="#FFFFFF" d="M111.945,36.098L145.45,2.594l1.313,1.318l-33.5,33.5L111.945,36.098z"/>
		<path fill="#FFFFFF" d="M117.258,13.492c3.075,0,5.586-2.509,5.586-5.585c0-3.082-2.511-5.585-5.586-5.585
			c-3.082,0-5.585,2.504-5.585,5.585C111.673,10.982,114.176,13.492,117.258,13.492L117.258,13.492z M117.258,4.185
			c2.053,0,3.721,1.667,3.721,3.722c0,2.053-1.668,3.722-3.721,3.722c-2.055,0-3.722-1.668-3.722-3.722
			C113.536,5.852,115.203,4.185,117.258,4.185L117.258,4.185z"/>
		<path fill="#FFFFFF" d="M141.458,26.521c-3.082,0-5.588,2.502-5.588,5.584c0,3.075,2.506,5.58,5.588,5.58
			c3.075,0,5.577-2.505,5.577-5.58C147.035,29.022,144.533,26.521,141.458,26.521L141.458,26.521z M141.458,35.827
			c-2.055,0-3.729-1.675-3.729-3.723c0-2.055,1.675-3.727,3.729-3.727c2.048,0,3.719,1.672,3.719,3.727
			C145.177,34.152,143.506,35.827,141.458,35.827L141.458,35.827z"/>
	</g>
	<g>
		<g>
			<defs>
				<rect id="SVGID_1_" x="74.1" y="2.321" width="13.261" height="35.362"/>
			</defs>
			<clipPath id="SVGID_2_">
				<use xlink:href="#SVGID_1_"  overflow="visible"/>
			</clipPath>
			<rect x="79.746" y="2.319" clip-path="url(#SVGID_2_)" fill="#FFFFFF" width="1.969" height="35.365"/>
		</g>
		<g>
			<defs>
				<rect id="SVGID_3_" x="63.049" y="9.077" width="35.362" height="13.261"/>
			</defs>
			<clipPath id="SVGID_4_">
				<use xlink:href="#SVGID_3_"  overflow="visible"/>
			</clipPath>
			<rect x="63.049" y="19.194" clip-path="url(#SVGID_4_)" fill="#FFFFFF" width="35.365" height="1.966"/>
		</g>
	</g>
	<g>
		<g>
			<g>
				<defs>
					<rect id="SVGID_5_" x="160.296" y="13.37" width="35.362" height="13.261"/>
				</defs>
				<clipPath id="SVGID_6_">
					<use xlink:href="#SVGID_5_"  overflow="visible"/>
				</clipPath>
				<rect x="160.296" y="13.664" clip-path="url(#SVGID_6_)" fill="#FFFFFF" width="35.364" height="1.968"/>
			</g>
			<g>
				<defs>
					<rect id="SVGID_7_" x="160.296" y="13.37" width="35.362" height="13.261"/>
				</defs>
				<clipPath id="SVGID_8_">
					<use xlink:href="#SVGID_7_"  overflow="visible"/>
				</clipPath>
				<rect x="160.296" y="23.487" clip-path="url(#SVGID_8_)" fill="#FFFFFF" width="35.364" height="1.966"/>
			</g>
		</g>
	</g>
	<g>
		<path fill="#FFFFFF" d="M233.721,2.319H209.51c-0.39,0-0.705,0.316-0.705,0.705v33.953c0,0.389,0.315,0.705,0.705,0.705h18.41
			c0.187,0,0.365-0.074,0.499-0.207l5.801-5.801c0.132-0.133,0.206-0.312,0.206-0.499V3.023
			C234.426,2.635,234.11,2.319,233.721,2.319z M210.214,3.728h22.803v26.743l-5.101-0.005h-0.001c-0.188,0-0.366,0.074-0.498,0.207
			c-0.133,0.131-0.207,0.311-0.206,0.498l0.004,5.102h-17.001V3.728z M228.62,31.875l3.402,0.003l-3.399,3.4L228.62,31.875z"/>
		<path fill="#FFFFFF" d="M216.022,27.734c-1.771,0-3.212,1.441-3.212,3.212c0,1.771,1.44,3.213,3.212,3.213
			s3.213-1.441,3.213-3.213C219.235,29.176,217.794,27.734,216.022,27.734z M216.022,32.75c-0.994,0-1.804-0.809-1.804-1.804
			c0-0.994,0.81-1.804,1.804-1.804c0.995,0,1.804,0.81,1.804,1.804C217.826,31.941,217.018,32.75,216.022,32.75z"/>
		<path fill="#FFFFFF" d="M225.209,30.355h-3.875c-0.39,0-0.704,0.315-0.704,0.704c0,0.39,0.314,0.704,0.704,0.704h3.875
			c0.388,0,0.703-0.314,0.703-0.704C225.912,30.671,225.597,30.355,225.209,30.355z"/>
		<path fill="#FFFFFF" d="M213.727,7.955h2.042c0.389,0,0.705-0.316,0.705-0.705c0-0.39-0.316-0.705-0.705-0.705h-2.042
			c-0.39,0-0.705,0.315-0.705,0.705C213.021,7.639,213.337,7.955,213.727,7.955z"/>
		<path fill="#FFFFFF" d="M223.658,7.955h6.129c0.389,0,0.704-0.316,0.704-0.705c0-0.39-0.315-0.705-0.704-0.705h-6.129
			c-0.389,0-0.705,0.315-0.705,0.705C222.953,7.639,223.27,7.955,223.658,7.955z"/>
		<path fill="#FFFFFF" d="M219.361,10.983h10.426c0.389,0,0.704-0.316,0.704-0.705c0-0.388-0.315-0.704-0.704-0.704h-10.426
			c-0.39,0-0.705,0.316-0.705,0.704C218.656,10.667,218.972,10.983,219.361,10.983z"/>
		<path fill="#FFFFFF" d="M213.408,16.549h16.414c0.389,0,0.704-0.316,0.704-0.705c0-0.389-0.315-0.705-0.704-0.705h-16.414
			c-0.389,0-0.704,0.316-0.704,0.705C212.704,16.232,213.02,16.549,213.408,16.549z"/>
		<path fill="#FFFFFF" d="M213.408,18.943h16.414c0.389,0,0.704-0.315,0.704-0.704c0-0.389-0.315-0.705-0.704-0.705h-16.414
			c-0.389,0-0.704,0.316-0.704,0.705C212.704,18.628,213.02,18.943,213.408,18.943z"/>
		<path fill="#FFFFFF" d="M213.408,21.55h16.414c0.389,0,0.704-0.315,0.704-0.705s-0.315-0.704-0.704-0.704h-16.414
			c-0.389,0-0.704,0.315-0.704,0.704S213.02,21.55,213.408,21.55z"/>
		<path fill="#FFFFFF" d="M229.822,22.537h-0.388c-0.39,0-0.704,0.313-0.704,0.704c0,0.389,0.314,0.704,0.704,0.704h0.388
			c0.389,0,0.704-0.315,0.704-0.704C230.526,22.851,230.211,22.537,229.822,22.537z"/>
		<path fill="#FFFFFF" d="M227.674,23.241c0-0.391-0.315-0.704-0.705-0.704h-13.561c-0.389,0-0.704,0.313-0.704,0.704
			c0,0.389,0.315,0.704,0.704,0.704h13.561C227.358,23.945,227.674,23.63,227.674,23.241z"/>
	</g>
</g>
</svg>
