<?xml version="1.0" encoding="utf-8"?>
<!-- Generator: Adobe Illustrator 15.0.0, SVG Export Plug-In . SVG Version: 6.00 Build 0)  -->
<!DOCTYPE svg PUBLIC "-//W3C//DTD SVG 1.1//EN" "http://www.w3.org/Graphics/SVG/1.1/DTD/svg11.dtd">
<svg version="1.1" id="Слой_1" xmlns="http://www.w3.org/2000/svg" xmlns:xlink="http://www.w3.org/1999/xlink" x="0px" y="0px"
	 width="58.318px" height="59.089px" viewBox="469.697 470.96 58.318 59.089" enable-background="new 469.697 470.96 58.318 59.089"
	 xml:space="preserve">
<g>
	<g>
		<g>
			<defs>
				<rect id="SVGID_1_" x="469.697" y="470.96" width="59.091" height="60.303"/>
			</defs>
			<clipPath id="SVGID_2_">
				<use xlink:href="#SVGID_1_"  overflow="visible"/>
			</clipPath>
			<path clip-path="url(#SVGID_2_)" fill="#5890CC" d="M527.961,497.996l-8.771-8.144v-13.336H509.09v3.961l-10.102-9.382
				l-28.971,26.9c-0.404,0.379-0.43,1.021-0.049,1.43c0.38,0.41,1.016,0.429,1.425,0.05l3.354-3.112v33.686h48.482v-33.686
				l3.355,3.112c0.191,0.183,0.442,0.271,0.69,0.271c0.271,0,0.536-0.108,0.74-0.32C528.394,499.017,528.37,498.375,527.961,497.996
				L527.961,497.996z M511.112,478.534h6.057v9.444l-6.057-5.628V478.534z M492.927,528.033v-21.278
				c0-0.522,0.424-0.946,0.947-0.946h10.229c0.522,0,0.947,0.424,0.947,0.946v21.278H492.927z M521.213,528.033h-14.145v-21.278
				c0-1.638-1.327-2.968-2.965-2.968h-10.229c-1.637,0-2.964,1.33-2.964,2.968v21.278h-14.145v-33.545l22.223-20.635l14.427,13.396
				l5.775,5.361l2.022,1.878V528.033z"/>
		</g>
	</g>
</g>
</svg>
