<?xml version="1.0" encoding="utf-8"?>
<!-- Generator: Adobe Illustrator 15.0.0, SVG Export Plug-In . SVG Version: 6.00 Build 0)  -->
<!DOCTYPE svg PUBLIC "-//W3C//DTD SVG 1.1//EN" "http://www.w3.org/Graphics/SVG/1.1/DTD/svg11.dtd">
<svg version="1.1" id="Layer_1" xmlns="http://www.w3.org/2000/svg" xmlns:xlink="http://www.w3.org/1999/xlink" x="0px" y="0px"
	 width="1000px" height="1000px" viewBox="0 0 1000 1000" enable-background="new 0 0 1000 1000" xml:space="preserve">
<g transform="translate(1 1)">
	<path fill="#5790D0" d="M981.5,432.333c-1.666,0-5,0-6.666-1.666L498.166,233.999L21.5,430.665c-5,1.666-11.666,1.666-15-1.666
		c-5-3.334-8.334-8.334-8.334-13.334v-83.334c0-6.666,3.334-13.334,10-15l483.334-200c3.334-1.666,8.334-1.666,13.334,0l483.334,200
		c6.666,3.334,10,8.334,10,15v83.334c0,5-3.334,10-6.666,13.334C988.166,430.665,984.832,432.333,981.5,432.333z M498.166,198.999
		c1.666,0,5,0,6.666,1.666l460,190v-46.666L498.166,150.665L31.5,343.999v46.666l460-190
		C493.166,198.999,496.5,198.999,498.166,198.999z"/>
	<path fill="#5790D0" d="M831.5,98.999H598.166c-10,0-16.666-6.666-16.666-16.666V15.667c0-10,6.666-16.666,16.666-16.666H831.5
		c10,0,16.666,6.666,16.666,16.666v66.666C848.166,92.333,841.5,98.999,831.5,98.999z M614.832,65.665h200V32.331h-200V65.665z"/>
	<path fill="#5790D0" d="M798.166,272.333c-1.666,0-5,0-6.666-1.666l-166.666-68.334c-6.666-3.334-10-8.334-10-15v-105
		c0-10,6.666-16.666,16.666-16.666h166.666c10,0,16.666,6.666,16.666,16.666v173.334c0,5-3.334,10-6.666,13.334
		C804.832,272.333,801.5,272.333,798.166,272.333z M648.166,175.665l133.334,55V98.999H648.166V175.665z"/>
	<path fill="#5790D0" d="M581.5,898.999H398.166c-10,0-16.666-6.666-16.666-16.666v-300c0-10,6.666-16.666,16.666-16.666H581.5
		c10,0,16.666,6.666,16.666,16.666v300C598.166,892.333,591.5,898.999,581.5,898.999z M414.832,865.665h150V598.999h-150V865.665z"
		/>
	<path fill="#5790D0" d="M598.166,465.665h-200c-10,0-16.666-6.666-16.666-16.666V315.665c0-10,6.666-16.666,16.666-16.666h200
		c10,0,16.666,6.666,16.666,16.666v133.334C614.832,458.999,608.166,465.665,598.166,465.665z M414.832,432.333h166.666v-100
		H414.832V432.333z"/>
	<path fill="#5790D0" d="M498.166,465.665c-10,0-16.666-6.666-16.666-16.666V315.665c0-10,6.666-16.666,16.666-16.666
		s16.666,6.666,16.666,16.666v133.334C514.832,458.999,508.166,465.665,498.166,465.665z"/>
	<path fill="#5790D0" d="M598.166,398.999h-200c-10,0-16.666-6.666-16.666-16.666s6.666-16.666,16.666-16.666h200
		c10,0,16.666,6.666,16.666,16.666S608.166,398.999,598.166,398.999z"/>
	<path fill="#5790D0" d="M331.5,715.665h-200c-10,0-16.666-6.666-16.666-16.666v-200c0-10,6.666-16.666,16.666-16.666h200
		c10,0,16.666,6.666,16.666,16.666v200C348.166,708.999,341.5,715.665,331.5,715.665z M148.166,682.333h166.666V515.667H148.166
		V682.333z"/>
	<path fill="#5790D0" d="M531.5,748.999h-16.666c-10,0-16.666-6.666-16.666-16.666s6.666-16.666,16.666-16.666H531.5
		c10,0,16.666,6.666,16.666,16.666S541.5,748.999,531.5,748.999z"/>
	<path fill="#5790D0" d="M398.166,815.665H64.832c-10,0-16.666-6.666-16.666-16.666s6.666-16.666,16.666-16.666h333.334
		c10,0,16.666,6.666,16.666,16.666S408.166,815.665,398.166,815.665z"/>
	<path fill="#5790D0" d="M331.5,615.665h-200c-10,0-16.666-6.666-16.666-16.666s6.666-16.666,16.666-16.666h200
		c10,0,16.666,6.666,16.666,16.666S341.5,615.665,331.5,615.665z"/>
	<path fill="#5790D0" d="M231.5,715.665c-10,0-16.666-6.666-16.666-16.666v-200c0-10,6.666-16.666,16.666-16.666
		s16.666,6.666,16.666,16.666v200C248.166,708.999,241.5,715.665,231.5,715.665z"/>
	<path fill="#5790D0" d="M614.832,465.665H381.5c-10,0-16.666-6.666-16.666-16.666s6.666-16.666,16.666-16.666h233.334
		c10,0,16.666,6.666,16.666,16.666S624.832,465.665,614.832,465.665z"/>
	<path fill="#5790D0" d="M348.166,715.665H114.832c-10,0-16.666-6.666-16.666-16.666s6.666-16.666,16.666-16.666h233.334
		c10,0,16.666,6.666,16.666,16.666S358.166,715.665,348.166,715.665z"/>
	<path fill="#5790D0" d="M814.832,998.999c-1.666,0-3.334,0-6.666-1.666l-6.666-1.666c-21.666-8.334-43.334-16.666-65-33.334
		c-66.666-53.334-105-135-105-230v-150c0-8.334,6.666-15,15-16.666c71.666-8.334,120-36.666,160-63.334
		c5-3.334,13.334-3.334,18.334,0c38.334,26.666,88.334,55,160,63.334c8.334,1.666,15,8.334,15,16.666v150
		c0,95-38.334,176.666-106.666,230c-20,16.666-43.334,25-65,33.334l-6.666,1.666C818.166,998.999,816.5,998.999,814.832,998.999z
		 M664.832,597.333v135c0,83.334,33.334,156.666,93.334,203.334c16.666,13.334,35,20,56.666,28.334l0,0l0,0
		c20-8.334,40-15,56.666-28.334c60-46.666,93.334-120,93.334-203.334v-135c-65-10-111.666-36.666-150-61.666
		C776.5,560.665,729.832,585.665,664.832,597.333z"/>
	<path fill="#5790D0" d="M731.5,798.999c-10,0-16.666-6.666-16.666-16.666V665.667c0-6.666,3.334-11.666,10-15l66.666-33.334
		c8.334-3.334,18.334,0,21.666,6.666c3.334,8.334,0,18.334-6.666,21.666l-58.334,30v106.666
		C748.166,792.333,741.5,798.999,731.5,798.999z"/>
	<path fill="#5790D0" d="M688.166,898.999H64.832c-10,0-16.666-6.666-16.666-16.666V395.665c0-6.666,3.334-13.334,10-15l433.334-180
		c3.334-1.666,8.334-1.666,13.334,0l433.334,180c6.666,3.334,10,8.334,10,15v176.666c0,5-1.666,10-6.666,13.334
		c-3.334,3.334-10,5-15,3.334c-46.666-13.334-83.334-33.334-111.666-51.666c-38.334,25-85,50-150,61.666v133.334
		c0,51.666,13.334,101.666,38.334,141.666c3.334,5,3.334,11.666,0,16.666C699.832,895.665,694.832,898.999,688.166,898.999z
		 M81.5,865.665h578.334c-18.334-40-28.334-85-28.334-133.334v-150c0-8.334,6.666-15,15-16.666c71.666-8.334,120-36.666,160-63.334
		c5-3.334,13.334-3.334,18.334,0c23.334,16.666,53.334,35,90,46.666V405.663L498.166,233.999L81.5,405.665V865.665z"/>
</g>
</svg>
