<?xml version="1.0" encoding="utf-8"?>
<!-- Generator: Adobe Illustrator 15.0.0, SVG Export Plug-In . SVG Version: 6.00 Build 0)  -->
<!DOCTYPE svg PUBLIC "-//W3C//DTD SVG 1.1//EN" "http://www.w3.org/Graphics/SVG/1.1/DTD/svg11.dtd">
<svg version="1.1" id="Слой_1" xmlns="http://www.w3.org/2000/svg" xmlns:xlink="http://www.w3.org/1999/xlink" x="0px" y="0px"
	 width="44.663px" height="57.015px" viewBox="476.672 472.615 44.663 57.015"
	 enable-background="new 476.672 472.615 44.663 57.015" xml:space="preserve">
<g>
	<path fill="#5A8CC5" d="M507.472,472.615h-30.8v57.015h44.663v-43.155L507.472,472.615z M508.027,475.857l10.06,10.06h-10.06
		V475.857z M478.574,527.727v-53.209h27.556v13.303h13.303v39.906H478.574L478.574,527.727z"/>
	<path fill="#5A8CC5" d="M510.882,492.571h-15.205c-0.524,0-0.952,0.422-0.952,0.951c0,0.524,0.428,0.946,0.952,0.946h15.205
		c0.523,0,0.951-0.422,0.951-0.946C511.833,492.993,511.405,492.571,510.882,492.571L510.882,492.571z"/>
	<path fill="#5A8CC5" d="M492.234,489.926l-4.089,3.271l-1.299-1.299c-0.371-0.371-0.975-0.371-1.345,0
		c-0.372,0.371-0.372,0.975,0,1.346l1.901,1.897c0.186,0.186,0.428,0.278,0.674,0.278c0.208,0,0.417-0.069,0.589-0.209l4.751-3.8
		c0.412-0.329,0.478-0.928,0.148-1.337C493.24,489.666,492.642,489.602,492.234,489.926L492.234,489.926z"/>
	<path fill="#5A8CC5" d="M510.882,503.025h-15.205c-0.524,0-0.952,0.422-0.952,0.945c0,0.53,0.428,0.951,0.952,0.951h15.205
		c0.523,0,0.951-0.421,0.951-0.951C511.833,503.447,511.405,503.025,510.882,503.025L510.882,503.025z"/>
	<path fill="#5A8CC5" d="M492.234,500.38l-4.089,3.271l-1.299-1.3c-0.371-0.37-0.975-0.37-1.345,0c-0.372,0.372-0.372,0.971,0,1.342
		l1.901,1.902c0.186,0.186,0.428,0.278,0.674,0.278c0.208,0,0.417-0.07,0.589-0.209l4.751-3.8c0.412-0.329,0.478-0.928,0.148-1.337
		C493.24,500.12,492.642,500.051,492.234,500.38L492.234,500.38z"/>
	<path fill="#5A8CC5" d="M510.882,513.474h-15.205c-0.524,0-0.952,0.427-0.952,0.951s0.428,0.951,0.952,0.951h15.205
		c0.523,0,0.951-0.427,0.951-0.951S511.405,513.474,510.882,513.474L510.882,513.474z"/>
	<path fill="#5A8CC5" d="M492.234,510.834l-4.089,3.271l-1.299-1.3c-0.371-0.372-0.975-0.372-1.345,0
		c-0.372,0.371-0.372,0.97,0,1.341l1.901,1.902c0.186,0.187,0.428,0.278,0.674,0.278c0.208,0,0.417-0.069,0.589-0.209l4.751-3.8
		c0.412-0.33,0.478-0.928,0.148-1.336C493.24,510.569,492.642,510.504,492.234,510.834L492.234,510.834z"/>
</g>
</svg>
