<?xml version="1.0" encoding="utf-8"?>
<!-- Generator: Adobe Illustrator 15.0.0, SVG Export Plug-In . SVG Version: 6.00 Build 0)  -->
<!DOCTYPE svg PUBLIC "-//W3C//DTD SVG 1.1//EN" "http://www.w3.org/Graphics/SVG/1.1/DTD/svg11.dtd">
<svg version="1.1" id="Слой_1" xmlns="http://www.w3.org/2000/svg" xmlns:xlink="http://www.w3.org/1999/xlink" x="0px" y="0px"
	 width="420.203px" height="517.174px" viewBox="289.142 241.162 420.203 517.174"
	 enable-background="new 289.142 241.162 420.203 517.174" xml:space="preserve">
<g>
	<path fill="#5890CC" d="M668.94,241.162H329.545c-22.278,0-40.403,18.125-40.403,40.404v436.366
		c0,22.278,18.125,40.404,40.403,40.404H668.94c22.278,0,40.404-18.126,40.404-40.404V281.565
		C709.345,259.287,691.219,241.162,668.94,241.162L668.94,241.162z M693.182,717.932c0,13.365-10.875,24.241-24.241,24.241H329.545
		c-13.365,0-24.241-10.876-24.241-24.241V281.565c0-13.366,10.875-24.241,24.241-24.241H668.94
		c13.366,0,24.241,10.875,24.241,24.241V717.932z"/>
	<path fill="#5890CC" d="M450.758,346.211h145.453c4.463,0,8.084-3.615,8.084-8.078c0-4.464-3.621-8.085-8.084-8.085H450.758
		c-4.464,0-8.078,3.621-8.078,8.085C442.68,342.596,446.294,346.211,450.758,346.211L450.758,346.211z"/>
	<path fill="#5890CC" d="M652.777,362.374h-202.02c-4.464,0-8.078,3.62-8.078,8.078c0,4.464,3.614,8.084,8.078,8.084h202.02
		c4.464,0,8.079-3.62,8.079-8.084C660.856,365.994,657.241,362.374,652.777,362.374L652.777,362.374z"/>
	<path fill="#5890CC" d="M450.758,410.856h177.779c4.463,0,8.078-3.615,8.078-8.079c0-4.463-3.615-8.078-8.078-8.078H450.758
		c-4.464,0-8.078,3.615-8.078,8.078C442.68,407.241,446.294,410.856,450.758,410.856L450.758,410.856z"/>
	<path fill="#5890CC" d="M410.354,588.635h-64.646c-4.463,0-8.084,3.62-8.084,8.085v64.646c0,4.463,3.621,8.078,8.084,8.078h64.646
		c4.463,0,8.078-3.615,8.078-8.078V596.72C418.432,592.255,414.816,588.635,410.354,588.635L410.354,588.635z M402.275,653.28
		h-48.488v-48.482h48.488V653.28z"/>
	<path fill="#5890CC" d="M450.758,604.798h145.453c4.463,0,8.084-3.62,8.084-8.078c0-4.465-3.621-8.085-8.084-8.085H450.758
		c-4.464,0-8.078,3.62-8.078,8.085C442.68,601.178,446.294,604.798,450.758,604.798L450.758,604.798z"/>
	<path fill="#5890CC" d="M652.777,620.961h-202.02c-4.464,0-8.078,3.615-8.078,8.078c0,4.464,3.614,8.085,8.078,8.085h202.02
		c4.464,0,8.079-3.621,8.079-8.085C660.856,624.576,657.241,620.961,652.777,620.961L652.777,620.961z"/>
	<path fill="#5890CC" d="M628.537,653.28H450.758c-4.464,0-8.078,3.621-8.078,8.085c0,4.463,3.614,8.078,8.078,8.078h177.779
		c4.463,0,8.078-3.615,8.078-8.078C636.615,656.901,633,653.28,628.537,653.28L628.537,653.28z"/>
	<path fill="#5890CC" d="M410.354,459.345h-64.646c-4.463,0-8.084,3.615-8.084,8.078v64.646c0,4.465,3.621,8.084,8.084,8.084h64.646
		c4.463,0,8.078-3.619,8.078-8.084v-64.646C418.432,462.96,414.816,459.345,410.354,459.345L410.354,459.345z M402.275,523.99
		h-48.488v-48.482h48.488V523.99z"/>
	<path fill="#5890CC" d="M450.758,475.508h145.453c4.463,0,8.084-3.621,8.084-8.085c0-4.463-3.621-8.078-8.084-8.078H450.758
		c-4.464,0-8.078,3.615-8.078,8.078C442.68,471.887,446.294,475.508,450.758,475.508L450.758,475.508z"/>
	<path fill="#5890CC" d="M652.777,491.664h-202.02c-4.464,0-8.078,3.621-8.078,8.085c0,4.463,3.614,8.078,8.078,8.078h202.02
		c4.464,0,8.079-3.615,8.079-8.078C660.856,495.285,657.241,491.664,652.777,491.664L652.777,491.664z"/>
	<path fill="#5890CC" d="M450.758,540.152h177.779c4.463,0,8.078-3.619,8.078-8.084c0-4.459-3.615-8.078-8.078-8.078H450.758
		c-4.464,0-8.078,3.619-8.078,8.078C442.68,536.533,446.294,540.152,450.758,540.152L450.758,540.152z"/>
	<path fill="#5890CC" d="M420.799,316.254l-13.794,13.794h-37.056c-4.463,0-8.078,3.621-8.078,8.085
		c0,4.463,3.615,8.078,8.078,8.078h20.893l-20.893,20.897L343.341,340.5c-3.156-3.157-8.271-3.157-11.428,0
		c-3.157,3.157-3.157,8.271,0,11.428l5.711,5.71v45.139c0,4.464,3.621,8.079,8.084,8.079h64.646c4.463,0,8.078-3.615,8.078-8.079
		v-24.246c0-4.458-3.615-8.08-8.078-8.08s-8.078,3.621-8.078,8.08V394.7h-48.488v-20.898l10.446,10.446
		c1.578,1.578,3.649,2.367,5.716,2.367c2.067,0,4.138-0.789,5.716-2.367l56.562-56.562c3.156-3.156,3.156-8.275,0-11.432
		C429.076,313.103,423.956,313.103,420.799,316.254L420.799,316.254z"/>
</g>
</svg>
