<?xml version="1.0" encoding="utf-8"?>
<!-- Generator: Adobe Illustrator 15.0.0, SVG Export Plug-In . SVG Version: 6.00 Build 0)  -->
<!DOCTYPE svg PUBLIC "-//W3C//DTD SVG 1.1//EN" "http://www.w3.org/Graphics/SVG/1.1/DTD/svg11.dtd">
<svg version="1.1" id="Layer_1" xmlns="http://www.w3.org/2000/svg" xmlns:xlink="http://www.w3.org/1999/xlink" x="0px" y="0px"
	 width="1000px" height="1000px" viewBox="0 0 1000 1000" enable-background="new 0 0 1000 1000" xml:space="preserve">
<path fill="#5790D0" d="M899.038,796.165l-3.539-1.004c-51.727-13.916-69.213-27.252-92.252-36.012
	c-16.264-6.195-30.119-12.055-41.959-17.518l-67.047-66.346l-0.367-52.791c35.584-47.639,62.867-104.904,71.777-165.371
	l8.881,13.121c3.967,5.828,10.498,9.156,17.273,9.156c2.045,0,4.09-0.305,6.102-0.932c8.758-2.686,14.74-10.756,14.74-19.928
	V250.128c0-2.594-0.457-64.102-39.732-125.82c-23.162-36.406-54.963-65.367-94.543-86.088
	C629.972,12.86,569.974,0.013,499.999,0.013c-69.945,0-129.971,12.848-178.371,38.207c-39.549,20.721-71.379,49.682-94.541,86.088
	c-39.273,61.721-39.732,123.227-39.732,125.82v208.414c0,9.17,5.98,17.256,14.74,19.941c8.758,2.67,18.219-0.672,23.375-8.256
	l8.881-13.121c8.91,60.467,36.193,117.719,71.777,165.387l-0.367,52.365l-67.84,67.139c-11.658,5.371-25.268,11.109-41.166,17.15
	c-23.041,8.758-40.527,22.094-92.252,36.012l-3.57,1.004c-47.057,15.564-78.734,59.234-78.734,108.52v95.305h477.801h477.803
	v-95.305C977.802,855.399,946.126,811.728,899.038,796.165z M665.827,813.224l7.811,32.195L558.04,916.708L673.212,713.13
	l44.828,44.373l-44.645,34.301C666.835,796.806,663.874,805.228,665.827,813.224z M326.206,791.804l-44.676-34.301l44.859-44.402
	l115.477,203.641l-115.904-71.35l7.781-32.166C335.696,805.228,332.735,796.806,326.206,791.804z M611.845,736.935
	c-2.838,2.562-11.291,9.645-25.848,16.602c-30.426,14.588-63.629,17.639-86.119,17.639c-40.738,0-69.334-9.582-86.148-17.639
	c-14.588-6.988-23.07-14.039-25.91-16.602l-35.002-61.707c48.887,46.631,103.818,75.531,147.182,75.531
	c43.119,0,97.623-28.564,146.268-74.676L611.845,736.935z M574.856,802.329l-74.889,132.385l-75.041-132.355
	c20.203,6.104,45.072,10.498,74.949,10.498C529.751,812.858,554.653,808.464,574.856,802.329z M330.233,564.331
	c76.078,0,145.9-29.541,170.406-41.168c26.396,10.863,104.398,40.07,182.092,41.107c-11.717,19.715-25.512,38.818-41.318,56.824
	c-23.924,27.248-50.748,50.076-77.543,65.975c-23.895,14.191-46.6,22.004-63.871,22.004c-17.273,0-39.977-7.812-63.871-22.004
	c-26.795-15.9-53.617-38.727-77.543-65.975c-15.869-18.098-29.754-37.293-41.473-57.098
	C321.505,564.208,325.87,564.331,330.233,564.331z M263.249,145.136c19.318-29.785,45.865-53.525,78.855-70.586
	c42.176-21.805,95.305-32.852,157.895-32.852S615.72,52.745,657.894,74.55c32.988,17.059,59.508,40.801,78.855,70.586
	c20.568,31.707,28.777,63.918,32.043,84.15H231.206C234.472,209.038,242.681,176.827,263.249,145.136z M229.04,270.972h541.92
	v119.656l-46.631-68.83c-3.906-5.723-10.346-9.141-17.273-9.141H292.821c-6.928,0-13.396,3.434-17.273,9.156l-46.508,68.738V270.972
	L229.04,270.972z M273.29,399.554l30.578-45.211h392.139l30.701,45.318c0.275,5.203,0.396,10.438,0.396,15.732
	c0,34.773-8.025,71.15-23.01,106.654c-89.84,6.24-194.422-40.326-195.52-40.814c-0.152-0.061-0.275-0.107-0.428-0.152
	c-0.184-0.092-0.367-0.152-0.549-0.229c-0.457-0.184-0.945-0.352-1.404-0.504c-0.121-0.031-0.213-0.061-0.305-0.092
	c-0.58-0.168-1.129-0.305-1.709-0.428c-0.031,0-0.031,0-0.061-0.016c-1.312-0.26-2.594-0.396-3.906-0.412c-0.061,0-0.121,0-0.184,0
	c-0.58,0-1.189,0.016-1.801,0.076c-0.152,0.016-0.336,0.045-0.488,0.061c-0.488,0.045-0.977,0.107-1.465,0.199
	c-0.244,0.045-0.488,0.107-0.732,0.168c-0.428,0.076-0.824,0.168-1.221,0.289c-0.275,0.076-0.549,0.168-0.824,0.26
	c-0.367,0.121-0.732,0.244-1.098,0.396c-0.275,0.092-0.549,0.213-0.793,0.336c-0.367,0.168-0.764,0.32-1.098,0.504
	c-0.092,0.061-0.184,0.092-0.275,0.137c-0.945,0.504-95.914,50.031-187.037,39.26c-2.562-0.305-5.096-0.092-7.508,0.504
	c-14.832-35.367-22.766-71.576-22.766-106.197C272.923,410.067,273.046,404.788,273.29,399.554z M63.882,904.685
	c0-31.098,19.836-58.625,49.5-68.695l2.32-0.672c39-10.498,60.484-20.812,77.787-29.113c6.684-3.174,12.482-5.951,18.098-8.088
	c11.139-4.238,23.252-9.061,35.551-14.492l42.908,32.955l-8.18,33.723c-2.105,8.758,1.648,17.914,9.338,22.674l138.637,85.328
	H63.882V904.685z M936.116,958.304H570.034l138.363-85.357c7.691-4.73,11.443-13.885,9.309-22.645l-8.18-33.723l43.061-33.078
	c12.391,5.492,24.627,10.346,35.857,14.613c5.584,2.137,11.381,4.914,18.064,8.088c17.303,8.301,38.816,18.615,77.787,29.113
	l2.32,0.672c29.633,10.07,49.5,37.598,49.5,68.695V958.304z"/>
</svg>
