<?xml version="1.0" encoding="utf-8"?>
<!-- Generator: Adobe Illustrator 15.0.0, SVG Export Plug-In . SVG Version: 6.00 Build 0)  -->
<!DOCTYPE svg PUBLIC "-//W3C//DTD SVG 1.1//EN" "http://www.w3.org/Graphics/SVG/1.1/DTD/svg11.dtd">
<svg version="1.1" id="Слой_1" xmlns="http://www.w3.org/2000/svg" xmlns:xlink="http://www.w3.org/1999/xlink" x="0px" y="0px"
	 width="49.415px" height="49.415px" viewBox="474.296 474.991 49.415 49.415"
	 enable-background="new 474.296 474.991 49.415 49.415" xml:space="preserve">
<g>
	<path fill="#5A8CC5" d="M499.004,474.991c-13.623,0-24.708,11.084-24.708,24.707s11.085,24.708,24.708,24.708
		c13.622,0,24.707-11.085,24.707-24.708S512.626,474.991,499.004,474.991L499.004,474.991z M499.004,522.503
		c-12.574,0-22.805-10.23-22.805-22.805s10.23-22.805,22.805-22.805c12.573,0,22.804,10.23,22.804,22.805
		S511.577,522.503,499.004,522.503L499.004,522.503z"/>
	<path fill="#5A8CC5" d="M510.645,489.565l-14.605,16.43l-8.799-7.039c-0.407-0.33-1.006-0.261-1.336,0.148
		c-0.324,0.408-0.259,1.006,0.148,1.336l9.502,7.6c0.178,0.14,0.387,0.209,0.595,0.209c0.265,0,0.524-0.106,0.715-0.32l15.2-17.103
		c0.353-0.394,0.314-0.992-0.08-1.341C511.596,489.133,510.993,489.171,510.645,489.565L510.645,489.565z"/>
</g>
</svg>
