<?xml version="1.0" encoding="utf-8"?>
<!-- Generator: Adobe Illustrator 15.0.0, SVG Export Plug-In . SVG Version: 6.00 Build 0)  -->
<!DOCTYPE svg PUBLIC "-//W3C//DTD SVG 1.1//EN" "http://www.w3.org/Graphics/SVG/1.1/DTD/svg11.dtd">
<svg version="1.1" id="Слой_1" xmlns="http://www.w3.org/2000/svg" xmlns:xlink="http://www.w3.org/1999/xlink" x="0px" y="0px"
	 width="60.605px" height="55.555px" viewBox="469.697 472.223 60.605 55.555"
	 enable-background="new 469.697 472.223 60.605 55.555" xml:space="preserve">
<g>
	<path fill="#5890CC" d="M525.775,516.715l-9.874-4.271c-0.232-0.117-0.488-0.404-0.711-0.779l6.595-0.005
		c0.114,0.01,2.831,0.258,5.012-0.681c0.823-0.354,1.435-1.056,1.682-1.923c0.251-0.878,0.094-1.806-0.43-2.551
		c-1.884-2.678-6.278-9.687-6.416-16.789c-0.005-0.122-0.405-12.206-12.336-12.306c-1.755,0.016-3.378,0.315-4.857,0.864
		c-0.32-0.823-0.794-1.677-1.505-2.486c-2.071-2.367-5.439-3.565-10.008-3.565c-4.567,0-7.931,1.198-10.006,3.565
		c-2.394,2.728-2.171,6.036-2.111,6.59v5.376c-0.646,0.734-1.012,1.677-1.012,2.647v4.041c0,1.231,0.557,2.376,1.514,3.141
		c0.924,3.664,2.861,6.427,3.537,7.31v3.344c0,0.977-0.533,1.875-1.392,2.343l-9.01,4.917c-2.931,1.599-4.75,4.662-4.75,8v4.281
		h60.605v-3.733C530.303,520.922,528.566,518.116,525.775,516.715L525.775,516.715z M514.141,525.755H471.72v-2.259
		c0-2.594,1.415-4.98,3.693-6.224l9.011-4.918c1.509-0.823,2.447-2.401,2.447-4.118v-4.059l-0.237-0.281
		c-0.024-0.03-2.5-3.023-3.442-7.137l-0.094-0.399l-0.346-0.223c-0.587-0.379-0.932-1.01-0.932-1.69v-4.046
		c0-0.562,0.236-1.095,0.676-1.488l0.33-0.302v-6.288l-0.004-0.133c-0.006-0.025-0.352-2.827,1.617-5.07
		c1.677-1.909,4.533-2.875,8.487-2.875c3.945,0,6.797,0.956,8.474,2.854c0.834,0.942,1.254,1.992,1.461,2.896
		c0.014,0.069,0.034,0.139,0.044,0.212c0.014,0.069,0.029,0.144,0.044,0.212c0.011,0.08,0.024,0.153,0.034,0.228
		c0.005,0.055,0.016,0.108,0.021,0.158c0.015,0.127,0.029,0.246,0.034,0.359c0.005,0.01,0.005,0.016,0.005,0.025
		c0.005,0.108,0.01,0.212,0.015,0.306c0,0.019,0,0.034,0,0.054c0,0.084,0,0.163,0,0.231v0.03c-0.005,0.236-0.02,0.38-0.02,0.384
		l-0.011,6.417l0.336,0.307c0.435,0.389,0.676,0.922,0.676,1.483v4.046c0,0.877-0.577,1.651-1.436,1.918l-0.503,0.152l-0.162,0.499
		c-0.676,2.101-1.638,4.044-2.86,5.77c-0.302,0.425-0.592,0.805-0.849,1.09l-0.252,0.287v4.168c0,0.256,0.03,0.507,0.069,0.754
		c0.005,0.049,0.02,0.104,0.03,0.152c0.039,0.203,0.093,0.405,0.157,0.598c0.015,0.044,0.029,0.088,0.05,0.134
		c0.078,0.211,0.167,0.419,0.275,0.61c0.01,0.024,0.024,0.045,0.035,0.069c0.147,0.257,0.315,0.503,0.508,0.73l0.231,0.285h0.04
		c0.345,0.341,0.744,0.637,1.198,0.863l9.647,4.823c2.422,1.209,3.92,3.641,3.92,6.344L514.141,525.755L514.141,525.755z
		 M528.28,525.755h-12.117v-2.061c0-3.472-1.934-6.595-5.037-8.148l-6.929-3.468c0.173-0.389,0.193-0.833,0.044-1.268
		c-0.246-0.71-0.893-1.168-1.646-1.168h-2.24c-0.044-0.084-0.073-0.173-0.113-0.262c-0.049-0.113-0.108-0.227-0.143-0.351
		c-0.064-0.226-0.099-0.458-0.099-0.699v-3.413c0.232-0.287,0.474-0.607,0.725-0.962c1.253-1.767,2.254-3.733,2.985-5.86
		c1.424-0.65,2.352-2.062,2.352-3.648v-4.046c0-0.971-0.364-1.913-1.011-2.647v-5.376c0.025-0.252,0.083-1.076-0.084-2.161
		c1.303-0.507,2.757-0.773,4.33-0.783c9.943,0.078,10.303,9.908,10.312,10.322c0.153,7.659,4.795,15.077,6.787,17.908
		c0.173,0.248,0.223,0.548,0.144,0.839c-0.05,0.162-0.183,0.464-0.542,0.622c-1.697,0.729-4,0.522-4.119,0.518h-6.949
		c-0.65,0-1.243,0.33-1.589,0.883c-0.34,0.548-0.37,1.224-0.083,1.801c0.315,0.636,0.872,1.488,1.79,1.948l9.85,4.261
		c2.086,1.056,3.383,3.167,3.383,5.509V525.755L528.28,525.755z"/>
</g>
</svg>
