<?xml version="1.0" encoding="utf-8"?>
<!-- Generator: Adobe Illustrator 21.0.0, SVG Export Plug-In . SVG Version: 6.00 Build 0)  -->
<svg version="1.1" id="Слой_1" xmlns="http://www.w3.org/2000/svg" xmlns:xlink="http://www.w3.org/1999/xlink" x="0px" y="0px"
	 viewBox="0 0 820 410" style="enable-background:new 0 0 820 410;" xml:space="preserve">
<style type="text/css">
	.st0{fill:#E9DD52;}
</style>
<path class="st0" d="M362.1,117.9c-6.1,0-11,5-11,11.2v205.2c0,21.7-17.6,39.3-39.3,39.3H65.5c-21.6,0-39.3-17.6-39.3-39.3V87.2
	c0-21.2,17.6-38.6,39.3-38.6l245.8,0c5.8,0,10.9-4.3,11.3-10.1c0.5-6.5-4.6-11.9-11.2-11.9H64.8c-34-0.1-61.6,27.6-61.6,61.5v245.8
	c0,33.9,27.8,61.7,61.7,61.7h246.6c33.9,0,61.7-27.8,61.7-61.7V129.1C373.1,122.9,368.2,117.9,362.1,117.9L362.1,117.9z"/>
<path class="st0" d="M403.2,17.7c-4.4-4.4-11.5-4.4-15.9,0L161.9,243.1l-56.3-56.3c-4.4-4.4-11.5-4.4-15.9,0
	c-4.4,4.4-4.4,11.5,0,15.9L154,267c2.2,2.2,5.1,3.3,7.9,3.3s5.7-1.1,7.9-3.3l0,0L403.2,33.6C407.6,29.2,407.6,22.1,403.2,17.7
	L403.2,17.7z"/>
<path class="st0" d="M772.2,117.9c-6.1,0-11,5-11,11.2v205.2c0,21.7-17.6,39.3-39.3,39.3H475.5c-21.6,0-39.3-17.6-39.3-39.3V87.2
	c0-21.2,17.6-38.6,39.3-38.6l245.8,0c5.8,0,10.9-4.3,11.3-10.1c0.5-6.5-4.6-11.9-11.2-11.9H474.8c-34-0.1-61.6,27.6-61.6,61.5v245.8
	c0,33.9,27.8,61.7,61.7,61.7h246.6c33.9,0,61.7-27.8,61.7-61.7V129.1C783.1,122.9,778.2,117.9,772.2,117.9L772.2,117.9z"/>
<path class="st0" d="M691.3,385.1c0-6.1-5-11-11.2-11H474.9c-21.7,0-39.3-17.6-39.3-39.3V88.4c0-21.6,17.6-39.3,39.3-39.3h247.1
	c21.2,0,38.6,17.6,38.6,39.3v245.8c0,5.8,4.3,10.9,10.1,11.3c6.5,0.5,11.9-4.6,11.9-11.2V87.7c0.1-34-27.6-61.6-61.5-61.6H475.3
	c-33.9,0-61.7,27.8-61.7,61.7v246.6c0,33.9,27.8,61.7,61.7,61.7h204.8C686.3,396.1,691.3,391.2,691.3,385.1L691.3,385.1z"/>
<path class="st0" d="M362.1,117.9c-6.1,0-11,5-11,11.2v205.2c0,21.7-17.6,39.3-39.3,39.3H65.5c-21.6,0-39.3-17.6-39.3-39.3V87.2
	c0-21.2,17.6-38.6,39.3-38.6l245.8,0c5.8,0,10.9-4.3,11.3-10.1c0.5-6.5-4.6-11.9-11.2-11.9H64.8c-34-0.1-61.6,27.6-61.6,61.5v245.8
	c0,33.9,27.8,61.7,61.7,61.7h246.6c33.9,0,61.7-27.8,61.7-61.7V129.1C373.1,122.9,368.2,117.9,362.1,117.9L362.1,117.9z"/>
</svg>
