<?xml version="1.0" encoding="utf-8"?>
<!-- Generator: Adobe Illustrator 21.0.0, SVG Export Plug-In . SVG Version: 6.00 Build 0)  -->
<svg version="1.1" id="Слой_1" xmlns="http://www.w3.org/2000/svg" xmlns:xlink="http://www.w3.org/1999/xlink" x="0px" y="0px"
	 viewBox="0 0 403.7 381.2" style="enable-background:new 0 0 403.7 381.2;" xml:space="preserve">
<style type="text/css">
	.st0{fill:#E9DD52;}
</style>
<path class="st0" d="M358.2,103.4c-6.2,0-11.2,5-11.2,11.2v204.9c0,21.7-17.6,39.3-39.3,39.3h-246c-21.6,0-39.3-17.6-39.3-39.3v-246
	c0-21.6,17.6-39.3,39.3-39.3h246c6.2,0,11.2-5,11.2-11.2c0-6.2-5-11.2-11.2-11.2h-246C27.7,11.7,0,39.4,0,73.4v246
	c0,34,27.7,61.7,61.7,61.7h246c34,0,61.7-27.7,61.7-61.7V114.6C369.4,108.4,364.4,103.4,358.2,103.4L358.2,103.4z"/>
<path class="st0" d="M399.7,3.2c-4.4-4.4-11.5-4.4-15.9,0L158.4,228.6l-56.3-56.3c-4.4-4.4-11.5-4.4-15.9,0
	c-4.4,4.4-4.4,11.5,0,15.9l64.3,64.3c2.2,2.2,5.1,3.3,7.9,3.3s5.7-1.1,7.9-3.3c0,0,0,0,0,0L399.7,19.1
	C404.1,14.7,404.1,7.6,399.7,3.2L399.7,3.2z"/>
</svg>
