<?xml version="1.0" encoding="utf-8"?>
<!-- Generator: Adobe Illustrator 15.0.0, SVG Export Plug-In . SVG Version: 6.00 Build 0)  -->
<!DOCTYPE svg PUBLIC "-//W3C//DTD SVG 1.1//EN" "http://www.w3.org/Graphics/SVG/1.1/DTD/svg11.dtd">
<svg version="1.1" id="Слой_1" xmlns="http://www.w3.org/2000/svg" xmlns:xlink="http://www.w3.org/1999/xlink" x="0px" y="0px"
	 width="49.888px" height="91.224px" viewBox="474.296 454.798 49.888 91.224"
	 enable-background="new 474.296 454.798 49.888 91.224" xml:space="preserve">
<g>
	<g>
		<g>
			<defs>
				<rect id="SVGID_1_" x="474.296" y="454.798" width="49.888" height="91.345"/>
			</defs>
			<clipPath id="SVGID_2_">
				<use xlink:href="#SVGID_1_"  overflow="visible"/>
			</clipPath>
			<path clip-path="url(#SVGID_2_)" fill="#4C5E90" d="M521.822,454.699l-11.846-0.018c-13.308,0-21.909,8.824-21.909,22.479v10.365
				h-11.911c-1.025,0-1.86,0.831-1.86,1.86v15.02c0,1.025,0.835,1.86,1.86,1.86h11.911v37.895c0,1.025,0.835,1.86,1.864,1.86h15.534
				c1.03,0,1.865-0.835,1.865-1.86v-37.895h13.925c1.029,0,1.861-0.835,1.861-1.86l0.008-15.02c0-0.491-0.199-0.964-0.547-1.317
				c-0.349-0.348-0.821-0.543-1.317-0.543h-13.93v-8.787c0-4.223,1.007-6.366,6.506-6.366l7.98-0.005c1.03,0,1.86-0.835,1.86-1.86
				v-13.942C523.678,455.534,522.848,454.704,521.822,454.699L521.822,454.699z"/>
		</g>
	</g>
</g>
</svg>
