<?xml version="1.0" encoding="utf-8"?>
<!-- Generator: Adobe Illustrator 15.0.0, SVG Export Plug-In . SVG Version: 6.00 Build 0)  -->
<!DOCTYPE svg PUBLIC "-//W3C//DTD SVG 1.1//EN" "http://www.w3.org/Graphics/SVG/1.1/DTD/svg11.dtd">
<svg version="1.1" id="Слой_1" xmlns="http://www.w3.org/2000/svg" xmlns:xlink="http://www.w3.org/1999/xlink" x="0px" y="0px"
	 width="49.889px" height="91.225px" viewBox="0 0 49.889 91.225" enable-background="new 0 0 49.889 91.225" xml:space="preserve">
<g>
	<g>
		<g>
			<g>
				<defs>
					<rect id="SVGID_1_" x="0" y="-0.06" width="49.887" height="91.344"/>
				</defs>
				<clipPath id="SVGID_2_">
					<use xlink:href="#SVGID_1_"  overflow="visible"/>
				</clipPath>
				<path clip-path="url(#SVGID_2_)" fill="#FFFFFF" d="M47.526-0.159L35.68-0.177c-13.308,0-21.909,8.824-21.909,22.479v10.365
					H1.861c-1.025,0-1.86,0.831-1.86,1.859v15.021c0,1.023,0.835,1.859,1.86,1.859h11.911v37.895c0,1.025,0.835,1.859,1.863,1.859
					h15.534c1.031,0,1.865-0.834,1.865-1.859V51.407H46.96c1.029,0,1.861-0.836,1.861-1.859l0.008-15.021
					c0-0.491-0.199-0.964-0.547-1.316c-0.35-0.349-0.822-0.543-1.318-0.543h-13.93V23.88c0-4.224,1.008-6.366,6.506-6.366
					l7.98-0.005c1.029,0,1.859-0.835,1.859-1.86V1.707C49.382,0.676,48.552-0.154,47.526-0.159L47.526-0.159z"/>
			</g>
		</g>
	</g>
</g>
</svg>
