<?xml version="1.0" encoding="utf-8"?>
<!-- Generator: Adobe Illustrator 15.0.0, SVG Export Plug-In . SVG Version: 6.00 Build 0)  -->
<!DOCTYPE svg PUBLIC "-//W3C//DTD SVG 1.1//EN" "http://www.w3.org/Graphics/SVG/1.1/DTD/svg11.dtd">
<svg version="1.1" id="Слой_1" xmlns="http://www.w3.org/2000/svg" xmlns:xlink="http://www.w3.org/1999/xlink" x="0px" y="0px"
	 width="118.59px" height="104.526px" viewBox="439.85 448.859 118.59 104.526"
	 enable-background="new 439.85 448.859 118.59 104.526" xml:space="preserve">
<g>
	<g>
		<g>
			<defs>
				<rect id="SVGID_1_" x="439.85" y="448.859" width="118.59" height="104.526"/>
			</defs>
			<clipPath id="SVGID_2_">
				<use xlink:href="#SVGID_1_"  overflow="visible"/>
			</clipPath>
			<path clip-path="url(#SVGID_2_)" fill="#5A8CC6" d="M487.172,469.483c2.945-1.234,4.18-4.752,2.848-7.602l-4.653-9.789
				c-1.331-2.756-4.562-3.99-7.414-2.756c-8.073,3.424-15.011,7.887-20.521,13.302c-6.747,6.37-11.309,13.688-13.781,21.761
				c-2.469,8.176-3.8,19.294-3.8,33.45v29.175c0,3.137,2.565,5.702,5.703,5.702h37.341c3.137,0,5.702-2.565,5.702-5.702v-37.346
				c0-3.138-2.565-5.703-5.702-5.703h-17.864c0.19-9.595,2.474-17.293,6.654-23.089
				C475.104,476.229,480.235,472.429,487.172,469.483L487.172,469.483z"/>
		</g>
		<g>
			<defs>
				<rect id="SVGID_3_" x="439.85" y="448.859" width="118.59" height="104.526"/>
			</defs>
			<clipPath id="SVGID_4_">
				<use xlink:href="#SVGID_3_"  overflow="visible"/>
			</clipPath>
			<path clip-path="url(#SVGID_4_)" fill="#5A8CC6" d="M554.259,469.483c2.947-1.234,4.181-4.752,2.85-7.602l-4.653-9.692
				c-1.332-2.756-4.562-3.989-7.415-2.756c-7.98,3.42-14.825,7.889-20.43,13.205c-6.746,6.463-11.399,13.781-13.873,21.858
				c-2.468,7.98-3.707,19.099-3.707,33.353v29.175c0,3.137,2.565,5.702,5.702,5.702h37.347c3.136,0,5.702-2.565,5.702-5.702v-37.346
				c0-3.138-2.566-5.703-5.702-5.703h-17.961c0.19-9.595,2.473-17.293,6.653-23.089C542.19,476.229,547.322,472.429,554.259,469.483
				L554.259,469.483z"/>
		</g>
	</g>
</g>
</svg>
