<?xml version="1.0" encoding="utf-8"?>
<!-- Generator: Adobe Illustrator 15.0.0, SVG Export Plug-In . SVG Version: 6.00 Build 0)  -->
<!DOCTYPE svg PUBLIC "-//W3C//DTD SVG 1.1//EN" "http://www.w3.org/Graphics/SVG/1.1/DTD/svg11.dtd">
<svg version="1.1" id="Слой_1" xmlns="http://www.w3.org/2000/svg" xmlns:xlink="http://www.w3.org/1999/xlink" x="0px" y="0px"
	 width="50.36px" height="32.307px" viewBox="474.296 484.494 50.36 32.307" enable-background="new 474.296 484.494 50.36 32.307"
	 xml:space="preserve">
<g>
	<path d="M476.199,488.293h46.561c1.049,0,1.896-0.85,1.896-1.896c0-1.05-0.849-1.903-1.896-1.903h-46.561
		c-1.049,0-1.903,0.854-1.903,1.903C474.296,487.443,475.15,488.293,476.199,488.293L476.199,488.293z"/>
	<path d="M476.199,502.547h46.561c1.049,0,1.896-0.85,1.896-1.896c0-1.05-0.849-1.902-1.896-1.902h-46.561
		c-1.049,0-1.903,0.854-1.903,1.902C474.296,501.697,475.15,502.547,476.199,502.547L476.199,502.547z"/>
	<path d="M476.199,516.801h46.561c1.049,0,1.896-0.85,1.896-1.896c0-1.049-0.849-1.902-1.896-1.902h-46.561
		c-1.049,0-1.903,0.854-1.903,1.902C474.296,515.951,475.15,516.801,476.199,516.801L476.199,516.801z"/>
</g>
</svg>
