<?xml version="1.0" encoding="utf-8"?>
<!-- Generator: Adobe Illustrator 15.0.0, SVG Export Plug-In . SVG Version: 6.00 Build 0)  -->
<!DOCTYPE svg PUBLIC "-//W3C//DTD SVG 1.1//EN" "http://www.w3.org/Graphics/SVG/1.1/DTD/svg11.dtd">
<svg version="1.1" id="Слой_1" xmlns="http://www.w3.org/2000/svg" xmlns:xlink="http://www.w3.org/1999/xlink" x="0px" y="0px"
	 width="55.5px" height="91.461px" viewBox="471.375 454.798 55.5 91.461" enable-background="new 471.375 454.798 55.5 91.461"
	 xml:space="preserve">
<g>
	<g>
		<g>
			<defs>
				<rect id="SVGID_1_" x="471.92" y="454.798" width="54.449" height="91.461"/>
			</defs>
			<clipPath id="SVGID_2_">
				<use xlink:href="#SVGID_1_"  overflow="visible"/>
			</clipPath>
			<path clip-path="url(#SVGID_2_)" fill="#DD8044" d="M494.693,518.702c-7.03-0.733-13.373-2.464-18.806-6.709
				c-0.674-0.528-1.368-1.039-1.981-1.628c-2.376-2.283-2.617-4.896-0.737-7.592c1.609-2.306,4.311-2.923,7.117-1.6
				c0.543,0.259,1.062,0.579,1.559,0.923c10.12,6.949,24.016,7.146,34.178,0.311c1.007-0.771,2.078-1.401,3.327-1.722
				c2.427-0.621,4.686,0.27,5.985,2.39c1.489,2.422,1.466,4.788-0.362,6.667c-2.812,2.882-6.189,4.97-9.943,6.428
				c-3.549,1.373-7.434,2.064-11.284,2.527c0.584,0.632,0.854,0.941,1.22,1.304c5.226,5.253,10.473,10.477,15.68,15.743
				c1.771,1.797,2.143,4.019,1.168,6.107c-1.071,2.277-3.461,3.78-5.805,3.619c-1.484-0.103-2.644-0.84-3.675-1.88
				c-3.943-3.967-7.957-7.86-11.822-11.901c-1.122-1.179-1.665-0.956-2.653,0.065c-3.968,4.082-7.999,8.105-12.054,12.1
				c-1.82,1.796-3.986,2.12-6.098,1.096c-2.246-1.086-3.675-3.378-3.563-5.679c0.074-1.56,0.84-2.752,1.911-3.819
				c5.17-5.159,10.323-10.337,15.483-15.507C493.881,519.603,494.196,519.236,494.693,518.702L494.693,518.702z"/>
		</g>
		<g>
			<defs>
				<rect id="SVGID_3_" x="471.92" y="454.798" width="54.449" height="91.461"/>
			</defs>
			<clipPath id="SVGID_4_">
				<use xlink:href="#SVGID_3_"  overflow="visible"/>
			</clipPath>
			<path clip-path="url(#SVGID_4_)" fill="#DD8044" d="M498.979,500.724c-12.546-0.042-22.837-10.444-22.763-23.014
				c0.07-12.71,10.365-22.95,23.037-22.912c12.699,0.032,22.888,10.421,22.827,23.26
				C522.018,490.599,511.656,500.765,498.979,500.724L498.979,500.724z M510.385,477.742c-0.023-6.241-4.992-11.21-11.219-11.215
				c-6.283-0.009-11.294,5.049-11.247,11.349c0.046,6.213,5.058,11.149,11.302,11.126
				C505.448,488.979,510.402,483.978,510.385,477.742L510.385,477.742z"/>
		</g>
	</g>
</g>
</svg>
