<?xml version="1.0" encoding="utf-8"?>
<!-- Generator: Adobe Illustrator 15.0.0, SVG Export Plug-In . SVG Version: 6.00 Build 0)  -->
<!DOCTYPE svg PUBLIC "-//W3C//DTD SVG 1.1//EN" "http://www.w3.org/Graphics/SVG/1.1/DTD/svg11.dtd">
<svg version="1.1" id="Слой_1" xmlns="http://www.w3.org/2000/svg" xmlns:xlink="http://www.w3.org/1999/xlink" x="0px" y="0px"
	 width="55.5px" height="91.461px" viewBox="0 0 55.5 91.461" enable-background="new 0 0 55.5 91.461" xml:space="preserve">
<g>
	<g>
		<g>
			<g>
				<defs>
					<rect id="SVGID_1_" x="0.525" width="54.449" height="91.461"/>
				</defs>
				<clipPath id="SVGID_2_">
					<use xlink:href="#SVGID_1_"  overflow="visible"/>
				</clipPath>
				<path clip-path="url(#SVGID_2_)" fill="#FFFFFF" d="M23.299,63.904c-7.03-0.733-13.373-2.464-18.807-6.709
					c-0.674-0.528-1.368-1.039-1.98-1.628c-2.376-2.283-2.617-4.896-0.737-7.592c1.609-2.307,4.312-2.924,7.117-1.601
					c0.543,0.259,1.062,0.579,1.559,0.923c10.12,6.949,24.017,7.146,34.179,0.312c1.007-0.771,2.077-1.401,3.326-1.723
					c2.428-0.62,4.687,0.271,5.985,2.391c1.489,2.422,1.466,4.788-0.362,6.667c-2.812,2.882-6.188,4.97-9.942,6.428
					c-3.549,1.373-7.435,2.064-11.284,2.527c0.584,0.632,0.854,0.94,1.22,1.304c5.227,5.253,10.474,10.478,15.681,15.743
					c1.771,1.797,2.143,4.019,1.168,6.106c-1.071,2.277-3.461,3.78-5.806,3.619c-1.483-0.103-2.644-0.84-3.675-1.88
					c-3.943-3.967-7.957-7.859-11.822-11.9c-1.121-1.18-1.665-0.956-2.652,0.064c-3.969,4.082-7.999,8.105-12.055,12.1
					c-1.819,1.797-3.985,2.12-6.098,1.097c-2.246-1.086-3.675-3.378-3.562-5.679c0.073-1.561,0.84-2.753,1.91-3.819
					c5.171-5.159,10.323-10.337,15.483-15.507C22.486,64.806,22.802,64.438,23.299,63.904L23.299,63.904z"/>
			</g>
		</g>
		<g>
			<g>
				<defs>
					<rect id="SVGID_3_" x="0.525" width="54.449" height="91.461"/>
				</defs>
				<clipPath id="SVGID_4_">
					<use xlink:href="#SVGID_3_"  overflow="visible"/>
				</clipPath>
				<path clip-path="url(#SVGID_4_)" fill="#FFFFFF" d="M27.584,45.926C15.038,45.884,4.747,35.482,4.821,22.912
					C4.892,10.202,15.187-0.038,27.858,0c12.699,0.032,22.888,10.421,22.827,23.26C50.623,35.801,40.262,45.967,27.584,45.926
					L27.584,45.926z M38.99,22.944c-0.022-6.241-4.992-11.21-11.219-11.215c-6.283-0.01-11.294,5.049-11.247,11.349
					c0.046,6.213,5.058,11.149,11.302,11.126C34.054,34.181,39.008,29.18,38.99,22.944L38.99,22.944z"/>
			</g>
		</g>
	</g>
</g>
</svg>
