<?xml version="1.0" encoding="utf-8"?>
<!-- Generator: Adobe Illustrator 15.0.0, SVG Export Plug-In . SVG Version: 6.00 Build 0)  -->
<!DOCTYPE svg PUBLIC "-//W3C//DTD SVG 1.1//EN" "http://www.w3.org/Graphics/SVG/1.1/DTD/svg11.dtd">
<svg version="1.1" id="Слой_1" xmlns="http://www.w3.org/2000/svg" xmlns:xlink="http://www.w3.org/1999/xlink" x="0px" y="0px"
	 width="450.375px" height="452.163px" viewBox="274.5 274.5 450.375 452.163" enable-background="new 274.5 274.5 450.375 452.163"
	 xml:space="preserve">
<g>
	<g>
		<defs>
			<rect id="SVGID_1_" x="274.745" y="274.252" width="450.13" height="452.411"/>
		</defs>
		<clipPath id="SVGID_2_">
			<use xlink:href="#SVGID_1_"  overflow="visible"/>
		</clipPath>
		<path clip-path="url(#SVGID_2_)" fill="#FFFFFF" d="M630.241,554.193c-9.22-9.595-20.336-14.727-32.117-14.727
			c-11.688,0-22.901,5.034-32.497,14.634l-30.029,29.932c-2.474-1.331-4.941-2.565-7.317-3.8c-3.42-1.712-6.653-3.327-9.409-5.038
			c-28.127-17.864-53.688-41.147-78.204-71.269c-11.878-15.015-19.859-27.654-25.654-40.479c7.79-7.126,15.014-14.542,22.043-21.669
			c2.664-2.658,5.323-5.414,7.985-8.077c19.952-19.951,19.952-45.8,0-65.756l-25.946-25.942c-2.94-2.946-5.985-5.985-8.833-9.023
			c-5.703-5.893-11.688-11.976-17.863-17.678c-9.22-9.123-20.244-13.966-31.835-13.966c-11.595,0-22.805,4.844-32.307,13.966
			l-0.19,0.19l-32.312,32.596c-12.162,12.161-19.099,26.984-20.621,44.185c-2.278,27.746,5.893,53.595,12.166,70.507
			c15.391,41.526,38.392,80.009,72.693,121.253c41.62,49.698,91.697,88.941,148.902,116.595
			c21.854,10.356,51.029,22.615,83.619,24.703c2,0.097,4.088,0.189,5.99,0.189c21.951,0,40.385-7.882,54.829-23.565
			c0.094-0.19,0.283-0.283,0.381-0.473c4.941-5.985,10.639-11.405,16.629-17.2c4.083-3.898,8.264-7.98,12.352-12.259
			c9.409-9.785,14.346-21.19,14.346-32.877c0-11.781-5.034-23.094-14.629-32.596L630.241,554.193z M664.262,654.252
			C664.164,654.252,664.164,654.35,664.262,654.252c-3.707,3.995-7.509,7.605-11.596,11.595
			c-6.176,5.894-12.448,12.068-18.337,19.005c-9.601,10.264-20.907,15.108-35.731,15.108c-1.425,0-2.946,0-4.37-0.093
			c-28.22-1.806-54.449-12.83-74.118-22.234c-53.785-26.039-101.015-63.005-140.258-109.85
			c-32.4-39.058-54.068-75.165-68.414-113.936c-8.84-23.658-12.069-42.098-10.644-59.484c0.95-11.122,5.224-20.336,13.112-28.223
			l32.405-32.406c4.653-4.37,9.595-6.746,14.443-6.746c5.985,0,10.829,3.614,13.873,6.653l0.283,0.284
			c5.8,5.418,11.308,11.024,17.106,17.009c2.947,3.043,5.986,6.083,9.025,9.22l25.941,25.941c10.072,10.072,10.072,19.385,0,29.458
			c-2.756,2.757-5.415,5.512-8.171,8.171c-7.98,8.171-15.585,15.774-23.849,23.186c-0.19,0.19-0.38,0.287-0.478,0.473
			c-8.171,8.176-6.649,16.156-4.942,21.57l0.288,0.859c6.746,16.342,16.248,31.736,30.692,50.077l0.094,0.093
			c26.229,32.308,53.877,57.493,84.38,76.781c3.897,2.473,7.888,4.468,11.688,6.365c3.423,1.713,6.652,3.327,9.408,5.039
			c0.382,0.19,0.762,0.474,1.142,0.663c3.229,1.615,6.27,2.376,9.405,2.376c7.888,0,12.829-4.941,14.443-6.556l32.498-32.498
			c3.233-3.234,8.366-7.127,14.352-7.127c5.893,0,10.736,3.702,13.683,6.937l52.547,52.547
			C673.954,634.203,673.954,644.184,664.262,654.252L664.262,654.252z"/>
	</g>
	<g>
		<defs>
			<rect id="SVGID_3_" x="274.745" y="274.252" width="450.13" height="452.411"/>
		</defs>
		<clipPath id="SVGID_4_">
			<use xlink:href="#SVGID_3_"  overflow="visible"/>
		</clipPath>
		<path clip-path="url(#SVGID_4_)" fill="#FFFFFF" d="M517.734,382.389c24.893,4.181,47.512,15.966,65.566,34.02
			c18.054,18.054,29.741,40.668,34.019,65.565c1.044,6.274,6.459,10.645,12.64,10.645c0.757,0,1.424-0.098,2.186-0.19
			c7.029-1.142,11.687-7.791,10.546-14.824c-5.132-30.122-19.386-57.586-41.146-79.346c-21.761-21.762-49.224-36.016-79.347-41.147
			c-7.029-1.137-13.584,3.517-14.823,10.454C506.14,374.501,510.699,381.247,517.734,382.389L517.734,382.389z"/>
	</g>
	<g>
		<defs>
			<rect id="SVGID_5_" x="274.745" y="274.252" width="450.13" height="452.411"/>
		</defs>
		<clipPath id="SVGID_6_">
			<use xlink:href="#SVGID_5_"  overflow="visible"/>
		</clipPath>
		<path clip-path="url(#SVGID_6_)" fill="#FFFFFF" d="M724.124,473.896c-8.453-49.599-31.834-94.735-67.751-130.658
			c-35.917-35.917-81.054-59.292-130.658-67.751c-6.937-1.234-13.492,3.517-14.727,10.454c-1.142,7.029,3.513,13.591,10.547,14.825
			c44.282,7.507,84.668,28.508,116.784,60.532c32.117,32.117,53.024,72.502,60.532,116.784c1.044,6.269,6.458,10.64,12.635,10.64
			c0.76,0,1.429-0.093,2.184-0.19C720.612,487.486,725.363,480.832,724.124,473.896L724.124,473.896z"/>
	</g>
</g>
</svg>
