<?xml version="1.0" encoding="utf-8"?>
<!-- Generator: Adobe Illustrator 15.0.0, SVG Export Plug-In . SVG Version: 6.00 Build 0)  -->
<!DOCTYPE svg PUBLIC "-//W3C//DTD SVG 1.1//EN" "http://www.w3.org/Graphics/SVG/1.1/DTD/svg11.dtd">
<svg version="1.1" id="Слой_1" xmlns="http://www.w3.org/2000/svg" xmlns:xlink="http://www.w3.org/1999/xlink" x="0px" y="0px"
	 width="49.415px" height="49.415px" viewBox="474.296 474.991 49.415 49.415"
	 enable-background="new 474.296 474.991 49.415 49.415" xml:space="preserve">
<g>
	<path fill="#6B8CC4" d="M499.004,474.991c-13.623,0-24.708,11.084-24.708,24.707s11.085,24.708,24.708,24.708
		c13.622,0,24.707-11.085,24.707-24.708S512.626,474.991,499.004,474.991L499.004,474.991z M512.774,491.457l-15.2,17.104
		c-0.376,0.422-0.9,0.641-1.425,0.641c-0.417,0-0.835-0.14-1.188-0.419l-9.502-7.6c-0.816-0.654-0.95-1.852-0.292-2.672
		c0.654-0.822,1.852-0.952,2.667-0.297l8.093,6.472l14.008-15.757c0.696-0.784,1.898-0.854,2.683-0.157
		C513.4,489.472,513.475,490.674,512.774,491.457L512.774,491.457z"/>
</g>
</svg>
