<?xml version="1.0" encoding="utf-8"?>
<!-- Generator: Adobe Illustrator 15.0.0, SVG Export Plug-In . SVG Version: 6.00 Build 0)  -->
<!DOCTYPE svg PUBLIC "-//W3C//DTD SVG 1.1//EN" "http://www.w3.org/Graphics/SVG/1.1/DTD/svg11.dtd">
<svg version="1.1" id="Слой_1" xmlns="http://www.w3.org/2000/svg" xmlns:xlink="http://www.w3.org/1999/xlink" x="0px" y="0px"
	 width="289.635px" height="165.057px" viewBox="355.183 423.172 289.635 165.057"
	 enable-background="new 355.183 423.172 289.635 165.057" xml:space="preserve">
<g>
	<g>
		<g>
			<defs>
				<rect id="SVGID_1_" x="355.183" y="423.172" width="289.635" height="165.057"/>
			</defs>
			<clipPath id="SVGID_2_">
				<use xlink:href="#SVGID_1_"  overflow="visible"/>
			</clipPath>
			<path clip-path="url(#SVGID_2_)" fill="#FFFFFF" d="M604.093,527.485c9.596,9.368,19.719,18.18,28.326,28.495
				c3.801,4.578,7.401,9.307,10.152,14.624c3.901,7.558,0.366,15.877-6.412,16.332l-42.13-0.022
				c-10.871,0.904-19.539-3.471-26.828-10.899c-5.832-5.943-11.238-12.268-16.843-18.411c-2.301-2.51-4.709-4.872-7.586-6.737
				c-5.749-3.735-10.741-2.594-14.031,3.405c-3.345,6.103-4.106,12.857-4.436,19.66c-0.45,9.919-3.448,12.527-13.413,12.982
				c-21.303,1.006-41.513-2.219-60.291-12.96c-16.555-9.475-29.394-22.847-40.565-37.981
				c-21.758-29.481-38.419-61.873-53.393-95.168c-3.372-7.504-0.903-11.53,7.374-11.674c13.743-0.265,27.486-0.246,41.248-0.019
				c5.586,0.083,9.284,3.285,11.442,8.564c7.438,18.285,16.536,35.681,27.959,51.809c3.04,4.292,6.144,8.584,10.562,11.609
				c4.885,3.346,8.602,2.235,10.902-3.207c1.457-3.451,2.098-7.168,2.427-10.865c1.086-12.719,1.229-25.413-0.677-38.085
				c-1.174-7.911-5.628-13.028-13.521-14.527c-4.027-0.761-3.429-2.259-1.475-4.561c3.383-3.963,6.569-6.431,12.917-6.431h47.619
				c7.497,1.479,9.164,4.849,10.189,12.389l0.041,52.894c-0.083,2.924,1.458,11.586,6.719,13.521
				c4.208,1.373,6.982-1.996,9.507-4.664c11.4-12.1,19.538-26.4,26.809-41.206c3.225-6.515,6-13.274,8.687-20.03
				c1.995-5.016,5.118-7.48,10.765-7.373l45.832,0.041c1.355,0,2.732,0.02,4.047,0.246c7.726,1.318,9.841,4.641,7.455,12.18
				c-3.758,11.832-11.07,21.691-18.221,31.599c-7.641,10.573-15.816,20.786-23.394,31.425
				C594.893,514.156,595.443,519.051,604.093,527.485L604.093,527.485z"/>
		</g>
	</g>
</g>
</svg>
