<?xml version="1.0" encoding="iso-8859-1"?>
<!-- Generator: Adobe Illustrator 19.0.1, SVG Export Plug-In . SVG Version: 6.00 Build 0)  -->
<svg version="1.1" id="Layer_1" xmlns="http://www.w3.org/2000/svg" xmlns:xlink="http://www.w3.org/1999/xlink" x="0px" y="0px"
	 viewBox="-49 141 512 512" style="enable-background:new -49 141 512 512;" xml:space="preserve">
<path style="fill:#FFFFFF;" d="M382.279,141H31.721c-5.632,0-10.199,4.566-10.199,10.199v491.602
	c0,5.633,4.567,10.199,10.199,10.199h266.562c2.705,0,5.298-1.075,7.212-2.987l83.997-83.998c1.912-1.912,2.987-4.506,2.987-7.212
	V151.199C392.479,145.566,387.912,141,382.279,141z M41.92,161.398h330.161v387.201l-73.862-0.067c-0.003,0-0.006,0-0.009,0
	c-2.705,0-5.298,1.075-7.212,2.987c-1.914,1.915-2.989,4.513-2.987,7.221l0.066,73.862H41.92V161.398z M308.419,568.939
	l49.257,0.045l-49.213,49.212L308.419,568.939z"/>
<path style="fill:#FFFFFF;" d="M126.023,508.976c-25.647,0-46.513,20.866-46.513,46.513c0,25.649,20.867,46.515,46.513,46.515
	c25.648,0,46.514-20.866,46.514-46.515C172.539,529.842,151.672,508.976,126.023,508.976z M126.023,581.606
	c-14.4,0-26.115-11.716-26.115-26.116c0-14.4,11.715-26.115,26.115-26.115s26.116,11.715,26.116,26.115
	S140.425,581.606,126.023,581.606z"/>
<path style="fill:#FFFFFF;" d="M259.016,546.928H202.92c-5.632,0-10.199,4.566-10.199,10.199s4.567,10.199,10.199,10.199h56.096
	c5.632,0,10.199-4.566,10.199-10.199S264.648,546.928,259.016,546.928z"/>
<path style="fill:#FFFFFF;" d="M92.769,222.594h29.578c5.632,0,10.199-4.566,10.199-10.199s-4.567-10.199-10.199-10.199H92.769
	c-5.632,0-10.199,4.566-10.199,10.199S87.137,222.594,92.769,222.594z"/>
<path style="fill:#FFFFFF;" d="M236.578,222.594h88.733c5.632,0,10.199-4.566,10.199-10.199s-4.567-10.199-10.199-10.199h-88.733
	c-5.632,0-10.199,4.566-10.199,10.199S230.946,222.594,236.578,222.594z"/>
<path style="fill:#FFFFFF;" d="M174.363,266.45h150.948c5.632,0,10.199-4.566,10.199-10.199s-4.567-10.199-10.199-10.199H174.363
	c-5.632,0-10.199,4.566-10.199,10.199S168.731,266.45,174.363,266.45z"/>
<path style="fill:#FFFFFF;" d="M88.179,347.024h237.641c5.632,0,10.199-4.566,10.199-10.199s-4.567-10.199-10.199-10.199H88.179
	c-5.632,0-10.199,4.566-10.199,10.199S82.547,347.024,88.179,347.024z"/>
<path style="fill:#FFFFFF;" d="M88.179,381.701h237.641c5.632,0,10.199-4.566,10.199-10.199c0-5.633-4.567-10.199-10.199-10.199
	H88.179c-5.632,0-10.199,4.566-10.199,10.199C77.98,377.135,82.547,381.701,88.179,381.701z"/>
<path style="fill:#FFFFFF;" d="M88.179,419.438h237.641c5.632,0,10.199-4.566,10.199-10.199s-4.567-10.199-10.199-10.199H88.179
	c-5.632,0-10.199,4.566-10.199,10.199S82.547,419.438,88.179,419.438z"/>
<path style="fill:#FFFFFF;" d="M325.821,433.717h-5.61c-5.632,0-10.199,4.566-10.199,10.199s4.567,10.199,10.199,10.199h5.61
	c5.632,0,10.199-4.566,10.199-10.199S331.453,433.717,325.821,433.717z"/>
<path style="fill:#FFFFFF;" d="M294.713,443.916c0-5.633-4.567-10.199-10.199-10.199H88.179c-5.632,0-10.199,4.566-10.199,10.199
	s4.567,10.199,10.199,10.199h196.335C290.146,454.116,294.713,449.549,294.713,443.916z"/>
</svg>
