<?xml version="1.0" encoding="iso-8859-1"?>
<!-- Generator: Adobe Illustrator 19.0.1, SVG Export Plug-In . SVG Version: 6.00 Build 0)  -->
<svg version="1.1" id="&#x421;&#x43B;&#x43E;&#x439;_1"
	 xmlns="http://www.w3.org/2000/svg" xmlns:xlink="http://www.w3.org/1999/xlink" x="0px" y="0px" viewBox="0 0 595.28 841.89"
	 style="enable-background:new 0 0 595.28 841.89;" xml:space="preserve">
<g>
	<path style="fill:#FFFFFF;" d="M282.234,434.925l28.801-28.801l1.129,1.133l-28.797,28.797L282.234,434.925z M282.234,434.925"/>
	<path style="fill:#FFFFFF;" d="M286.801,415.492c2.644,0,4.801-2.157,4.801-4.801c0-2.649-2.157-4.801-4.801-4.801
		c-2.649,0-4.801,2.152-4.801,4.801C282,413.335,284.152,415.492,286.801,415.492L286.801,415.492z M286.801,407.492
		c1.765,0,3.199,1.433,3.199,3.199c0,1.765-1.434,3.199-3.199,3.199c-1.766,0-3.199-1.434-3.199-3.199
		C283.602,408.925,285.035,407.492,286.801,407.492L286.801,407.492z M286.801,407.492"/>
	<path style="fill:#FFFFFF;" d="M307.602,426.691c-2.649,0-4.801,2.152-4.801,4.801c0,2.644,2.152,4.796,4.801,4.796
		c2.644,0,4.796-2.152,4.796-4.796C312.398,428.843,310.246,426.691,307.602,426.691L307.602,426.691z M307.602,434.691
		c-1.766,0-3.204-1.438-3.204-3.199c0-1.766,1.438-3.204,3.204-3.204c1.761,0,3.199,1.438,3.199,3.204
		C310.801,433.253,309.363,434.691,307.602,434.691L307.602,434.691z M307.602,434.691"/>
</g>
</svg>
