<?xml version="1.0" encoding="iso-8859-1"?>
<!-- Generator: Adobe Illustrator 19.0.1, SVG Export Plug-In . SVG Version: 6.00 Build 0)  -->
<svg version="1.1" id="&#x421;&#x43B;&#x43E;&#x439;_1"
	 xmlns="http://www.w3.org/2000/svg" xmlns:xlink="http://www.w3.org/1999/xlink" x="0px" y="0px" viewBox="0 0 595.28 841.89"
	 style="enable-background:new 0 0 595.28 841.89;" xml:space="preserve">
<g>
	<path style="fill:#FFFFFF;" d="M319,421.89c0-12.129-9.871-22-22-22s-22,9.871-22,22c0,6.406,2.754,12.184,7.141,16.207l-0.02,0.02
		l0.711,0.601c0.047,0.039,0.098,0.07,0.145,0.11c0.378,0.312,0.773,0.609,1.171,0.898c0.129,0.094,0.258,0.187,0.391,0.281
		c0.43,0.293,0.867,0.574,1.316,0.836c0.098,0.059,0.196,0.113,0.293,0.172c0.489,0.277,0.993,0.543,1.504,0.781
		c0.039,0.02,0.075,0.035,0.114,0.055c1.672,0.773,3.457,1.344,5.32,1.684c0.051,0.007,0.098,0.015,0.148,0.023
		c0.578,0.102,1.164,0.18,1.758,0.234c0.07,0.008,0.145,0.012,0.215,0.02c0.59,0.047,1.188,0.078,1.793,0.078
		c0.598,0,1.191-0.031,1.777-0.078c0.075-0.008,0.149-0.012,0.223-0.016c0.59-0.054,1.168-0.133,1.742-0.23
		c0.051-0.008,0.102-0.02,0.153-0.028c1.835-0.328,3.593-0.886,5.242-1.644c0.062-0.027,0.125-0.055,0.183-0.082
		c0.496-0.234,0.977-0.484,1.45-0.75c0.117-0.067,0.234-0.133,0.351-0.203c0.43-0.254,0.856-0.516,1.266-0.801
		c0.148-0.098,0.293-0.207,0.437-0.313c0.352-0.25,0.699-0.511,1.031-0.785c0.075-0.058,0.157-0.113,0.231-0.172l0.73-0.613
		l-0.023-0.019C316.219,434.132,319,428.331,319,421.89L319,421.89z M276.602,421.89c0-11.25,9.148-20.398,20.398-20.398
		s20.398,9.148,20.398,20.398c0,6.062-2.66,11.512-6.871,15.25c-0.234-0.16-0.468-0.309-0.715-0.43l-6.773-3.386
		c-0.605-0.305-0.984-0.914-0.984-1.594v-2.367c0.156-0.192,0.324-0.411,0.492-0.653c0.879-1.238,1.582-2.617,2.094-4.097
		c1.015-0.481,1.668-1.493,1.668-2.633v-2.836c0-0.692-0.254-1.363-0.707-1.895v-3.734c0.039-0.414,0.187-2.758-1.508-4.691
		c-1.473-1.68-3.86-2.536-7.094-2.536c-3.234,0-5.621,0.856-7.094,2.536c-1.695,1.933-1.547,4.277-1.508,4.691v3.734
		c-0.453,0.528-0.707,1.203-0.707,1.895v2.836c0,0.883,0.395,1.703,1.071,2.258c0.648,2.539,1.98,4.461,2.476,5.109v2.316
		c0,0.653-0.359,1.254-0.929,1.567l-6.329,3.449c-0.199,0.109-0.402,0.238-0.601,0.383
		C279.223,433.324,276.602,427.91,276.602,421.89L276.602,421.89z M308.969,438.394c-0.281,0.203-0.567,0.402-0.856,0.59
		c-0.133,0.086-0.265,0.172-0.398,0.258c-0.379,0.234-0.762,0.453-1.156,0.664c-0.086,0.043-0.172,0.086-0.258,0.132
		c-0.903,0.461-1.836,0.86-2.793,1.18c-0.031,0.012-0.067,0.024-0.102,0.035c-0.5,0.168-1.008,0.313-1.523,0.442h-0.004
		c-0.52,0.129-1.043,0.234-1.57,0.324c-0.016,0-0.032,0.004-0.043,0.008c-0.496,0.078-1,0.136-1.5,0.183
		c-0.09,0.008-0.18,0.012-0.27,0.02c-0.496,0.035-0.996,0.058-1.496,0.058c-0.508,0-1.012-0.023-1.516-0.062
		c-0.086-0.004-0.175-0.012-0.261-0.02c-0.508-0.043-1.012-0.105-1.512-0.183l-0.066-0.012c-1.059-0.18-2.098-0.437-3.114-0.777
		c-0.031-0.012-0.062-0.024-0.093-0.035c-0.504-0.168-1-0.36-1.489-0.571c-0.004,0-0.008,0-0.011-0.004
		c-0.461-0.199-0.915-0.418-1.364-0.652c-0.058-0.031-0.117-0.059-0.176-0.09c-0.41-0.219-0.808-0.453-1.203-0.699
		c-0.117-0.074-0.234-0.148-0.347-0.227c-0.364-0.234-0.723-0.484-1.071-0.746c-0.035-0.027-0.07-0.054-0.105-0.082l0.074-0.043
		l6.328-3.449c1.086-0.594,1.762-1.734,1.762-2.973v-2.882l-0.184-0.223c-0.019-0.02-1.746-2.121-2.402-4.973l-0.07-0.316
		l-0.274-0.176c-0.386-0.25-0.617-0.664-0.617-1.113v-2.836c0-0.371,0.16-0.719,0.445-0.981l0.266-0.238v-4.453l-0.008-0.105
		c0-0.02-0.238-1.946,1.117-3.489c1.157-1.32,3.141-1.988,5.891-1.988c2.742,0,4.719,0.664,5.875,1.973
		c1.355,1.527,1.133,3.488,1.133,3.504L304,417.929l0.266,0.238c0.285,0.258,0.445,0.606,0.445,0.977v2.836
		c0,0.57-0.391,1.09-0.945,1.262l-0.399,0.121l-0.129,0.398c-0.472,1.465-1.144,2.82-1.996,4.024
		c-0.211,0.296-0.414,0.558-0.59,0.761l-0.195,0.223v2.961c0,1.289,0.715,2.449,1.867,3.027l6.774,3.387
		c0.043,0.019,0.086,0.043,0.129,0.066C309.141,438.273,309.055,438.331,308.969,438.394L308.969,438.394z M308.969,438.394"/>
</g>
</svg>
